<svg width="174" height="28" viewBox="0 0 174 28" xmlns="http://www.w3.org/2000/svg"><g fill="none" fill-rule="evenodd"><rect fill="#303438" width="174" height="28" rx="8"/><path d="M43.508 5.79c-2.79.846-7.596 1.26-11.862 1.386v4.896c0 2.754-.144 6.642-1.962 9.288.54.234 1.494.9 1.908 1.278 1.782-2.592 2.196-6.642 2.25-9.648h.864c.774 2.16 1.8 3.996 3.168 5.472-1.404.954-3.024 1.656-4.788 2.088.432.486.972 1.368 1.224 1.962 1.962-.594 3.726-1.422 5.238-2.52 1.44 1.08 3.168 1.89 5.256 2.43.306-.558.9-1.458 1.368-1.89-1.926-.432-3.564-1.098-4.932-1.998 1.746-1.782 3.024-4.086 3.762-7.11l-1.512-.612-.378.09H33.86V9.066c3.96-.162 8.262-.594 11.412-1.548L43.508 5.79zm-1.332 7.2a11.562 11.562 0 0 1-2.664 4.122c-1.17-1.152-2.052-2.538-2.682-4.122h5.346zm12.132.684v5.706h1.98v-4.05h4.968v4.05h2.052v-5.706h-9zm4.986 6.912c1.35.522 3.078 1.404 3.924 2.052l.972-1.476c-.882-.63-2.646-1.44-3.978-1.908l-.918 1.332zm-1.458-4.752v1.728c0 1.404-.576 2.646-4.698 3.492.36.36.954 1.224 1.152 1.674 4.5-1.026 5.544-2.988 5.544-5.094v-1.8h-1.998zM49.322 5.736c-.378 2.538-1.044 5.112-2.07 6.732a15.791 15.791 0 0 1 1.512 1.35c.612-.99 1.134-2.304 1.566-3.744h1.584c-.252.72-.522 1.422-.774 1.926l1.566.504c.54-.99 1.152-2.556 1.602-3.96l-1.332-.378-.324.072h-1.836c.162-.702.306-1.422.432-2.142l-1.926-.36zm.288 16.902c.306-.396.846-.882 4.05-3.33-.216-.396-.468-1.188-.576-1.746l-1.548 1.134v-6.354h-1.872v6.822c0 1.026-.738 1.8-1.152 2.142.324.288.882.954 1.098 1.332zm4.878-15.786v3.744h3.456v.846H53.57v1.602h10.872v-1.602H59.87v-.846h3.402V6.852H59.87V5.718h-1.926v1.134h-3.456zm1.746 1.404h1.71v.936h-1.71v-.936zm3.636 0h1.566v.936H59.87v-.936zm14.13 3.6a2.32 2.32 0 0 0-2.304 2.304A2.32 2.32 0 0 0 74 16.464a2.32 2.32 0 0 0 2.304-2.304A2.32 2.32 0 0 0 74 11.856zM84.638 21h2.664v-5.4h4.734v-2.232h-4.734V9.894h5.544V7.662h-8.208V21zm14.364.252c1.242 0 2.52-.432 3.51-1.116l-.9-1.62c-.738.45-1.44.684-2.25.684-1.512 0-2.592-.846-2.808-2.484h6.21c.072-.252.126-.738.126-1.224 0-2.808-1.44-4.824-4.212-4.824-2.394 0-4.698 2.034-4.698 5.292 0 3.33 2.196 5.292 5.022 5.292zM96.5 14.934c.216-1.458 1.152-2.214 2.214-2.214 1.314 0 1.908.864 1.908 2.214H96.5zm12.96 6.318c1.242 0 2.52-.432 3.51-1.116l-.9-1.62c-.738.45-1.44.684-2.25.684-1.512 0-2.592-.846-2.808-2.484h6.21c.072-.252.126-.738.126-1.224 0-2.808-1.44-4.824-4.212-4.824-2.394 0-4.698 2.034-4.698 5.292 0 3.33 2.196 5.292 5.022 5.292zm-2.502-6.318c.216-1.458 1.152-2.214 2.214-2.214 1.314 0 1.908.864 1.908 2.214h-4.122zm12.114 6.318c1.044 0 2.052-.558 2.79-1.296h.072l.198 1.044h2.16V6.636h-2.646v3.546l.09 1.584c-.72-.666-1.422-1.098-2.556-1.098-2.16 0-4.23 2.016-4.23 5.292 0 3.312 1.602 5.292 4.122 5.292zm.684-2.178c-1.332 0-2.088-1.044-2.088-3.15 0-1.998.954-3.078 2.088-3.078.648 0 1.278.198 1.89.756v4.428c-.576.756-1.188 1.044-1.89 1.044zm12.42 2.178c2.214 0 4.284-1.998 4.284-5.472 0-3.078-1.494-5.112-3.978-5.112-.99 0-1.998.486-2.808 1.206l.09-1.62V6.636h-2.646V21h2.07l.216-1.062h.09c.81.846 1.782 1.314 2.682 1.314zm-.576-2.178c-.558 0-1.224-.198-1.836-.756v-4.446c.684-.684 1.296-1.026 1.98-1.026 1.386 0 1.998 1.062 1.998 2.988 0 2.196-.954 3.24-2.142 3.24zm9.324 2.178c1.17 0 2.178-.558 3.042-1.332h.09l.18 1.08h2.16v-5.886c0-2.916-1.314-4.446-3.87-4.446-1.584 0-3.024.612-4.194 1.332l.936 1.764c.936-.558 1.836-.972 2.772-.972 1.242 0 1.674.756 1.71 1.746-4.05.432-5.796 1.566-5.796 3.708 0 1.728 1.17 3.006 2.97 3.006zm.882-2.07c-.774 0-1.332-.342-1.332-1.134 0-.918.81-1.584 3.276-1.872v2.016c-.63.63-1.188.99-1.944.99zm11.574 2.07c1.116 0 2.34-.378 3.294-1.224l-1.044-1.746c-.558.468-1.224.81-1.962.81-1.458 0-2.502-1.224-2.502-3.132 0-1.89 1.044-3.132 2.592-3.132.558 0 1.026.234 1.53.648l1.26-1.674c-.738-.666-1.692-1.134-2.934-1.134-2.736 0-5.148 1.944-5.148 5.292s2.142 5.292 4.914 5.292zm5.202-.252h2.61v-2.556l1.404-1.638L165.044 21h2.88l-3.78-5.922 3.456-4.158h-2.898l-3.438 4.32h-.072V6.636h-2.61V21z" fill="#E0E4E8" fill-rule="nonzero"/><path d="M9.28 3h9.44c2.184 0 2.976.227 3.774.654a4.45 4.45 0 0 1 1.852 1.852c.427.798.654 1.59.654 3.774v9.44c0 2.184-.227 2.976-.654 3.774a4.45 4.45 0 0 1-1.852 1.852c-.798.427-1.59.654-3.774.654H9.28c-2.184 0-2.976-.227-3.774-.654a4.45 4.45 0 0 1-1.852-1.852C3.227 21.696 3 20.904 3 18.72V9.28c0-2.184.227-2.976.654-3.774a4.45 4.45 0 0 1 1.852-1.852C6.304 3.227 7.096 3 9.28 3z" fill="#FFF"/><path d="m14.141 18.677.84.678c.091.074.11.206.044.303l-.84 1.22a.225.225 0 0 1-.37 0l-.84-1.22a.225.225 0 0 1 .044-.303l.84-.678a.225.225 0 0 1 .282 0zM9.81 11.915c2.103 0 3.809 1.654 3.809 3.693 0 2.04-1.706 3.694-3.81 3.694C7.707 19.302 6 17.648 6 15.608s1.706-3.693 3.81-3.693zm8.38 0c2.104 0 3.81 1.654 3.81 3.693 0 2.04-1.706 3.694-3.81 3.694-2.103 0-3.809-1.654-3.809-3.694s1.706-3.693 3.81-3.693zm-8.38 1.108c-1.473 0-2.667 1.158-2.667 2.585 0 1.428 1.194 2.586 2.667 2.586 1.472 0 2.666-1.158 2.666-2.586 0-1.427-1.194-2.585-2.666-2.585zm8.38 0c-1.472 0-2.666 1.158-2.666 2.585 0 1.428 1.194 2.586 2.666 2.586 1.473 0 2.667-1.158 2.667-2.586 0-1.427-1.194-2.585-2.667-2.585zm1.077-4.967a.582.582 0 0 1 .749.276.544.544 0 0 1-.274.735l-5.512 2.478-.011.005a.581.581 0 0 1-.244.046.58.58 0 0 1-.243-.046l-.011-.005-5.512-2.478a.544.544 0 0 1-.274-.735.582.582 0 0 1 .749-.276l.012.005 5.279 2.373 5.28-2.373z" fill="#303438"/></g></svg>