<svg xmlns="http://www.w3.org/2000/svg" width="40" height="40" viewBox="0 0 40 40"><path d="M19.96 0C5.386 0 0 12.724 0 19.96 0 27.117 5.228 40 19.564 40c0 0 3.565.08 3.565-3.181 0-3.26-1.584-2.227-1.584-4.533 0-2.306 1.584-3.34 2.376-3.34.792 0 5.861.398 8.713-.716C35.485 27.117 40 23.618 40 17.733 40 12.485 34.535 0 19.96 0zM7.762 19.96c-1.9 0-3.485-1.59-3.485-3.499 0-1.908 1.584-3.499 3.485-3.499 1.901 0 3.486 1.59 3.486 3.5a3.472 3.472 0 0 1-3.486 3.498zm6.575-8.588c-1.901 0-3.486-1.59-3.486-3.5 0-1.908 1.585-3.498 3.486-3.498 1.9 0 3.485 1.59 3.485 3.499 0 1.908-1.584 3.499-3.485 3.499zm11.089 0c-1.901 0-3.485-1.59-3.485-3.5 0-1.908 1.584-3.498 3.485-3.498 1.9 0 3.485 1.59 3.485 3.499 0 1.908-1.505 3.499-3.485 3.499zm6.653 8.588c-1.9 0-3.485-1.59-3.485-3.499 0-1.908 1.584-3.499 3.485-3.499 1.901 0 3.485 1.59 3.485 3.5a3.472 3.472 0 0 1-3.485 3.498z"/></svg>