<svg xmlns="http://www.w3.org/2000/svg" width="40" height="28" viewBox="0 0 40 28"><path d="M37.585 20.622v-.19c0-8.135-5.343-15.135-12.528-17.216C24.872 1.324 23.214 0 21.372 0h-2.58c-1.842 0-3.5 1.514-3.684 3.216-7.186 2.27-12.529 9.081-12.529 17.216v.19C1.105 21.189 0 22.514 0 24.216 0 26.297 1.658 28 3.685 28h32.61c2.027 0 3.685-1.703 3.685-3.784.184-1.702-.921-3.027-2.395-3.594zm-14.924-14c0-.757.553-1.325 1.29-1.325s1.29.568 1.29 1.325v9.837c0 .757-.553 1.325-1.29 1.325s-1.29-.568-1.29-1.325V6.622zm-7.553 0c0-.757.552-1.325 1.29-1.325.736 0 1.289.568 1.289 1.325v9.837c0 .757-.553 1.325-1.29 1.325s-1.29-.568-1.29-1.325V6.622zM36.479 25.54H3.87c-.737 0-1.29-.568-1.29-1.325s.553-1.324 1.29-1.324h32.61c.737 0 1.29.567 1.29 1.324 0 .757-.737 1.325-1.29 1.325z"/></svg>