<svg xmlns="http://www.w3.org/2000/svg" width="40" height="40" viewBox="0 0 40 40">
  <g fill="none" fill-rule="evenodd">
    <path fill="#000" fill-rule="nonzero" d="M31.6490246,31.6890994 C31.6490246,31.5176601 31.6270477,31.3589529 31.5855285,31.2095562 C31.3327946,30.5084349 30.8699643,30.1570353 30.1948665,30.1570353 C29.6258695,30.1570353 28.963438,30.4346084 28.2040516,30.9862015 L24.0020282,29.4236066 L28.2663633,27.8586759 C28.9841647,28.3272635 29.6465962,28.5620673 30.2582638,28.5620673 C30.9322431,28.5620673 31.3742808,28.2101413 31.5854957,27.5095792 C31.6270148,27.3601168 31.6478402,27.1997317 31.6478402,27.0295096 C31.6478402,26.137966 31.0799948,25.6578964 29.9420667,25.5949597 C30.4048311,25.12703 30.6380228,24.6682464 30.6380228,24.2216356 C30.6380228,23.7547916 30.3944349,23.359537 29.9097922,23.0404447 C29.6581768,22.9140448 29.3938622,22.8494302 29.1204015,22.8494302 C28.1936883,22.8494302 27.5611953,23.6041448 27.2242386,25.1154823 L19.8300748,27.8927269 L12.4370626,25.180064 C12.100073,23.626681 11.4676129,22.8494302 10.5408997,22.8494302 C10.2674061,22.8494302 10.0042429,22.9140448 9.75039037,23.0404447 C9.2887445,23.359537 9.05561863,23.7547916 9.05561863,24.2216356 C9.05561863,24.6682464 9.28874453,25.1270629 9.75039037,25.5949597 C8.59282128,25.6578635 8.01349392,26.137966 8.01349392,27.0295096 C8.01349392,27.1997317 8.03543789,27.3606761 8.07698997,27.5095792 C8.30781289,28.2101413 8.75093631,28.5620673 9.40418888,28.5620673 C10.0135206,28.5620673 10.678288,28.3272635 11.3938193,27.8586759 L15.6916133,29.4236066 L11.4561639,30.9538942 C10.719873,30.4230607 10.0666533,30.1570353 9.49884076,30.1570353 C8.8248615,30.1570353 8.34936497,30.5084678 8.07702286,31.2095563 C8.03431932,31.3589529 8.01349392,31.5176601 8.01349392,31.6890994 C8.01349392,32.5817288 8.59288709,33.0612391 9.75042326,33.1241429 C9.28877739,33.5921384 9.05565152,34.0508891 9.05565152,34.498092 C9.05565152,34.9643109 9.28877742,35.3578219 9.75042326,35.6787237 C10.0458279,35.8489128 10.3297506,35.9326091 10.6044286,35.9326091 C11.4676787,35.9326091 12.0897097,35.188225 12.4694357,33.6994895 L19.8301407,30.9862015 L27.1931485,33.6994895 C27.5716902,35.188225 28.2041174,35.9326091 29.08816,35.9326091 C29.3420455,35.9326091 29.6143547,35.8489128 29.9098909,35.6787237 C30.3945006,35.3578219 30.6381215,34.9643109 30.6381215,34.498092 C30.6381215,34.0508891 30.4049298,33.5921384 29.9421654,33.1241429 C31.0800277,33.0612391 31.6490246,32.5817288 31.6490246,31.6890994 Z M14.7129188,22.4979647 L14.7129188,22.9786594 C14.7129188,23.5735483 14.9114344,24.0738839 15.3130387,24.4772318 C15.7123729,24.8822905 16.2074775,25.1056782 16.7972011,25.1483488 C17.4088687,25.1910195 17.8612698,25.0842606 18.1567074,24.8292236 C18.6183203,25.1685162 19.1353689,25.3387383 19.704333,25.3387383 C20.2305935,25.3387383 20.7164534,25.1800311 21.1573067,24.8609716 C21.4527114,25.0941304 21.8843858,25.1910195 22.4533827,25.1483488 C23.0430734,25.0842606 23.5381781,24.8557077 23.9386309,24.4622296 C24.3379979,24.0669421 24.5387836,23.5741404 24.5387836,22.9786594 L24.5387836,22.6284112 C26.8123039,22.0317458 28.5722629,21.0322588 29.8152391,19.6266275 C31.0165974,18.2873216 31.6155987,16.7027827 31.6155987,14.872978 C31.6155987,14.4679193 31.5740795,14.0426274 31.4898568,13.5954245 C31.0685786,10.8747341 29.8256682,8.62884944 27.7621126,6.86369229 C25.5912059,4.97164185 22.9483887,4.02469538 19.8301407,4.02469538 C16.711794,4.02469538 14.0689439,4.96065339 11.8992874,6.83082575 C9.83579752,8.61967052 8.60321756,10.8747342 8.20391628,13.5954574 C8.11850916,14.0426604 8.07699,14.4679523 8.07699,14.873011 C8.07699,16.6595199 8.6551659,18.2221477 9.81503794,19.5631973 C10.9725741,20.9030296 12.6056068,21.8828756 14.7129188,22.4979647 Z M22.2790811,11.3473027 C22.901145,10.6139069 23.654741,10.2469129 24.5387507,10.2469129 C25.4447702,10.2469129 26.2075781,10.6139069 26.8307276,11.3473027 C27.4504885,12.080172 27.7620797,12.9682284 27.7620797,14.0103531 C27.7620797,15.0524778 27.4504885,15.9411263 26.8307276,16.6751143 C26.2075781,17.4096944 25.4447702,17.7755369 24.5387507,17.7755369 C23.6547739,17.7755369 22.9011779,17.4096615 22.2790811,16.6751143 C21.6581688,15.9411263 21.3465775,15.0524778 21.3465775,14.0103531 C21.3465775,12.9682284 21.6581688,12.080172 22.2790811,11.3473027 Z M18.9299115,18.6624418 C19.2357453,18.2636669 19.5346702,18.0634405 19.8301078,18.0634405 C20.1255453,18.0634405 20.4048292,18.2838672 20.6679595,18.7276157 C20.9310897,19.1690613 21.0638392,19.589155 21.0638392,19.9896078 C21.0638392,20.5995317 20.6633206,20.9036218 19.8623493,20.9036218 C19.3361546,20.9036218 18.9460652,20.7662993 18.6921468,20.4939243 C18.544428,20.3237023 18.4728716,20.1141982 18.4728716,19.8614971 C18.4729045,19.4622287 18.6252292,19.0628945 18.9299115,18.6624418 Z M12.5640548,11.3473027 C13.1953304,10.6139069 13.9535653,10.2469129 14.8375421,10.2469129 C15.7227033,10.2469129 16.4809382,10.6139069 17.1133983,11.3473027 C17.7458255,12.080172 18.0620226,12.9682284 18.0620226,14.0103531 C18.0620226,15.0524778 17.7458255,15.9411263 17.1133983,16.6751143 C16.4809382,17.4096944 15.7227034,17.7755369 14.8375421,17.7755369 C13.9535324,17.7755369 13.1952976,17.4096615 12.5640548,16.6751143 C11.9315947,15.9411263 11.6153975,15.0524778 11.6153975,14.0103531 C11.6153975,12.9682284 11.9316276,12.080172 12.5640548,11.3473027 Z"/>
    <rect width="40" height="40"/>
  </g>
</svg>
