<svg xmlns="http://www.w3.org/2000/svg" width="40" height="40" viewBox="0 0 40 40">
  <g fill="none" fill-rule="evenodd">
    <path fill="#000" fill-rule="nonzero" d="M18.4547168,28.3492723 L16.9245712,28.3492723 C16.5254028,28.3492723 16.1927625,28.6819127 16.1927625,29.0810811 L16.1927625,31.7422038 C16.1927625,32.1413722 16.5254028,32.4740125 16.9245712,32.4740125 L18.4547168,32.4740125 C18.8538852,32.4740125 19.1865255,32.1413721 19.1865255,31.7422038 L19.1865255,29.0810811 C19.1865255,28.6819127 18.8538851,28.3492723 18.4547168,28.3492723 Z M22.5794569,28.3492723 L21.0493113,28.3492723 C20.6501429,28.3492723 20.3175026,28.6819127 20.3175026,29.0810811 L20.3175026,31.7422038 C20.3175026,32.1413722 20.6501429,32.4740125 21.0493113,32.4740125 L22.5794569,32.4740125 C22.9786253,32.4740125 23.3112656,32.1413721 23.3112656,31.7422038 L23.3112656,29.0810811 C23.3112656,28.6819127 22.9786253,28.3492723 22.5794569,28.3492723 Z M31.693802,36 L7.74369803,36 C6.81230509,36 6.01396828,35.2016632 6.01396828,34.2702703 C6.01396828,33.3388773 6.81230509,32.5405406 7.74369803,32.5405405 L8.60856288,32.5405405 L8.60856288,27.6839917 C6.94536122,26.7525988 5.94744022,25.5550936 8.2093945,24.4241164 C8.74161903,24.1580042 9.27384356,23.95842 9.80606809,23.8253638 L9.80606809,20.6985447 C8.27592256,19.9002079 7.41105769,18.7692308 9.47342775,17.7713098 C10.4048207,17.3721414 11.3362136,17.1060291 12.3341346,16.9064449 L12.3341346,14.1787942 C11.2031575,13.5800416 10.5378768,12.7151767 12.0680223,11.983368 C12.6667749,11.7172557 13.2655275,11.5176715 13.9308082,11.3846154 C15.7935941,10.9189189 17.5233238,9.92099791 18.9869413,8.59043659 L18.9869413,4.93139294 C18.9869413,4.46569647 19.3861097,4 19.9183342,4 C20.3840307,4 20.8497271,4.39916841 20.8497271,4.93139294 L20.8497271,8.59043659 C22.2468165,9.92099794 23.9765463,10.9189189 25.9058602,11.3846154 C26.5711408,11.5176715 27.1698934,11.7172557 27.7686461,11.983368 C29.2987916,12.7151767 28.6335109,13.5800416 27.5025338,14.1787942 L27.5025338,16.9064449 C28.5004548,17.039501 29.4318477,17.3721414 30.3632407,17.7713098 C32.3590827,18.7692308 31.4942178,19.9002079 29.9640723,20.6985447 L29.9640723,23.8253638 C30.4962968,23.9584199 31.0285213,24.1580042 31.5607458,24.4241164 C33.8227001,25.5550936 32.8247791,26.8191268 31.1615774,27.6839917 L31.1615774,32.5405405 L32.0264423,32.5405405 C32.9578353,32.5405405 33.756172,33.3388773 33.756172,34.2702703 C33.4235317,35.2016632 32.6251949,36 31.693802,36 L31.693802,36 Z"/>
    <rect width="40" height="40"/>
  </g>
</svg>
