<svg xmlns="http://www.w3.org/2000/svg" width="40" height="40" viewBox="0 0 40 40">
  <g fill="none" fill-rule="evenodd">
    <path fill="#000" fill-rule="nonzero" d="M25.3465054,9.22580645 L14.4486129,9.22580645 L10.093172,7.30374194 L12.5926129,5.05341935 L27.3346344,5.00180645 L29.6819892,7.08283871 L25.3465054,9.22580645 Z M12.9945054,10.655828 L10.5349785,14.5935484 L4.62633333,12.3012473 L4.64560215,12.2083441 L8.55510753,8.68972043 L12.9945054,10.655828 Z M30.9206989,8.17634409 L35.2527419,12.0115269 L28.5967419,14.5935484 L26.2521398,10.8423226 L30.9206989,8.53763441 L30.9206989,8.17634409 Z M14.4265914,11.2903226 L24.7271505,11.2903226 L26.2989355,15.4812903 L24.6831075,16.1075269 L14.4486129,16.1075269 L12.8327849,15.4812903 L14.4045699,11.2903226 L14.2318387,11.2036129 L14.4265914,11.2903226 Z M9.80345161,16.5403871 L19.9099462,34 L4.00904301,15.2817204 L4.21962366,14.2570323 L9.80345161,16.5403871 Z M13.7927849,18.172043 L25.3389355,18.172043 L26.4503333,17.7171613 L19.9099462,34 L12.6841398,17.7171613 L13.7927849,18.172043 Z M35.7158817,13.9267097 L35.9705054,15.292043 L19.9099462,34 L29.3282688,16.5403871 L35.7158817,13.9267097 Z"/>
    <rect width="40" height="40"/>
  </g>
</svg>
