<svg xmlns="http://www.w3.org/2000/svg" width="40" height="40" viewBox="0 0 40 40"><path d="M10.75 3.575a2.5 2.5 0 0 1 .45 1.65h.35c0-1.575.875-2.275 1.95-2.275V2.6c-1 .025-1.9-.675-1.9-2.25V0h-.375v.35c0 1.575-.875 2.275-1.95 2.275v.35c.556-.03 1.097.19 1.475.6zM8.35 15.25h.5c0-1.775.6-3.5 3.2-3.55v-.475a3.025 3.025 0 0 1-3.2-3.5v-.5h-.5v.5c0 2.25-1.275 3.5-3.05 3.5v.525c2.75 0 3.05 1.25 3.05 3.5zM40 12.5a11.975 11.975 0 0 0-20.175-8.75L36.75 20.675A11.925 11.925 0 0 0 40 12.5zM3.225 30.325a5 5 0 0 0-1.2 5.7v.325L0 38.55 1.45 40l2.075-2.075a5 5 0 0 0 5.9 0L10 37.5 23.15 26 15 17.85 3.225 30.325zm33.7-5.95v-.5h-.55v.5c0 2.25-1.25 3.5-2.8 3.5h-.25v.55h.25c1.55 0 2.8 1.25 2.8 3.5h.5c0-2.25 1.25-3.5 2.8-3.5H40v-.55h-.25c-1.575 0-2.825-1.25-2.825-3.5zM18.15 5.675a11.9 11.9 0 0 0-1.65 10L24.775 24a11.9 11.9 0 0 0 10-1.65L18.15 5.675z"/></svg>