<svg xmlns="http://www.w3.org/2000/svg" width="40" height="36" viewBox="0 0 40 36"><path d="M26.704 5.244H13.065l-5.45-2.386L10.741.064 29.192 0l2.938 2.584-5.426 2.66zM11.245 7.019l-3.078 4.889L.773 9.062l.024-.115 4.892-4.369 5.556 2.441zM33.68 3.941l5.422 4.761-8.33 3.206-2.935-4.657L33.68 4.39V3.94zM13.038 7.807h12.89l1.968 5.203-2.022.777H13.065l-2.022-.777 1.967-5.203-.216-.108.244.108zm-5.786 6.518L19.9 36 0 12.762l.264-1.272 6.988 2.835zm4.992 2.025h14.45l1.391-.564L19.9 36l-9.043-20.214 1.387.564zm27.437-5.27L40 12.775 19.9 36l11.787-21.675 7.994-3.245z"/></svg>