<svg xmlns="http://www.w3.org/2000/svg" width="40" height="40" viewBox="0 0 40 40">
  <g fill="none" fill-rule="evenodd">
    <rect width="40" height="40"/>
    <path fill="#000" fill-rule="nonzero" d="M23.6647494,6 L23.6647494,16.5469388 L31.6647494,30.3102041 C32.1117502,31.0808163 32.1117502,31.9983673 31.6647494,32.7689796 C31.2177486,33.5395918 30.4157765,34 29.5217749,34 L29.5217749,34 L10.4782251,34 C9.5842235,34 8.78225144,33.5395918 8.33525062,32.7689796 C7.88824979,31.9983673 7.88824979,31.0808163 8.33525062,30.3102041 L8.33525062,30.3102041 L16.3319638,16.5469388 L16.3319638,6 L23.6647494,6 Z M22.3434675,7.31265306 L17.6565325,7.31265306 L17.6565325,16.8995918 L11.842235,26.9110204 L28.3451109,27.2244898 L22.3434675,16.8995918 L22.3434675,7.31265306 Z M18.3434675,20.4228571 C19.8915366,20.4228571 21.1503698,21.6734694 21.1503698,23.2114286 C21.1503698,24.7493878 19.8915366,26 18.3434675,26 C16.7986853,26 15.5365653,24.7493878 15.5365653,23.2114286 C15.5365653,21.6734694 16.7953985,20.4228571 18.3434675,20.4228571 Z M20.1051767,15.3093878 C21.1437962,15.3093878 21.9852095,16.1485714 21.9852095,17.1771429 C21.9852095,18.2089796 21.1405094,19.044898 20.1051767,19.044898 C19.0698439,19.044898 18.2251438,18.2057143 18.2251438,17.1771429 C18.2251438,16.1453061 19.0698439,15.3093878 20.1051767,15.3093878 Z"/>
  </g>
</svg>
