<svg xmlns="http://www.w3.org/2000/svg" width="40" height="35" viewBox="0 0 40 35"><path d="M26.617 0c-4.962-.026-9.307 2.667-11.664 6.704a10.357 10.357 0 0 0-4.234-.934C4.817 5.71.032 10.492 0 16.48c-.005.573.04 1.141.12 1.695l.026.18c.672 3.987 4.123 6.885 8.11 6.885H29.38a10.42 10.42 0 0 0 9.861-7.065c.504-1.456.76-2.986.76-4.528C40.003 6.127 34.035.041 26.616 0M10.73 33.845c-.563 1.082-1.845 1.47-2.865.88-1.022-.594-1.39-1.956-.831-3.034.566-1.08 4.417-3.856 4.417-3.856s-.16 4.934-.721 6.01m22.263 0a2.17 2.17 0 0 1-1.299 1.065 2.154 2.154 0 0 1-1.665-.185c-1.053-.6-1.435-1.956-.856-3.034.582-1.08 4.566-3.856 4.566-3.856s-.163 4.934-.746 6.01m-11.12 0c-.565 1.082-1.844 1.47-2.867.88-1.019-.6-1.388-1.956-.828-3.034.563-1.08 4.418-3.856 4.418-3.856s-.159 4.934-.722 6.01"/></svg>