<svg xmlns="http://www.w3.org/2000/svg" width="40" height="40" viewBox="0 0 40 40"><path d="M20 0C8.954 0 0 8.954 0 20s8.954 20 20 20 20-8.954 20-20S31.046 0 20 0zm.032 34c-1.542 0-2.792-1.17-2.792-2.612 0-1.446 1.25-2.616 2.793-2.616 1.542 0 2.792 1.17 2.792 2.616 0 1.442-1.25 2.612-2.793 2.612zm2.793-9.388c0 1.446-1.25 2.616-2.793 2.616-1.542 0-2.792-1.17-2.792-2.616l.003-.04-2.22-12.354h.032a4.465 4.465 0 0 1-.032-.515c0-2.598 2.242-4.703 5.01-4.703 2.767 0 5.007 2.105 5.007 4.703 0 .174-.012.345-.032.515h.032l-2.22 12.357.005.04v-.003z"/></svg>