<svg xmlns="http://www.w3.org/2000/svg" width="35" height="40" viewBox="0 0 35 40"><path d="M15.695 30.437h-1.93a.927.927 0 0 0-.923.914v3.327c0 .499.42.915.923.915h1.93a.927.927 0 0 0 .924-.915V31.35a.927.927 0 0 0-.924-.914zm5.204 0h-1.93a.927.927 0 0 0-.923.914v3.327c0 .499.42.915.923.915h1.93a.927.927 0 0 0 .924-.915V31.35a.927.927 0 0 0-.924-.914zM32.4 40H2.181C1.007 40 0 39.002 0 37.838s1.007-2.162 2.182-2.162h1.091v-6.071c-2.098-1.164-3.357-2.661-.503-4.075a9.898 9.898 0 0 1 2.014-.748v-3.909c-1.93-.998-3.021-2.411-.42-3.659 1.176-.499 2.35-.831 3.61-1.08v-3.41c-1.427-.749-2.267-1.83-.336-2.745.755-.332 1.51-.582 2.35-.748 2.35-.582 4.532-1.83 6.379-3.493V1.164C16.367.582 16.87 0 17.542 0c.587 0 1.175.499 1.175 1.164v4.574c1.763 1.663 3.945 2.91 6.379 3.493.84.166 1.595.416 2.35.748 1.93.915 1.091 1.996-.336 2.744v3.41c1.26.166 2.434.582 3.61 1.081 2.517 1.248 1.426 2.661-.504 3.66v3.908a9.898 9.898 0 0 1 2.014.748c2.854 1.414 1.595 2.994-.503 4.075v6.07h1.09c1.176 0 2.183.999 2.183 2.163C34.58 39.002 33.573 40 32.398 40z"/></svg>