<svg xmlns="http://www.w3.org/2000/svg" width="40" height="39" viewBox="0 0 40 39"><path d="M26.64 22.663v3.504h9.22c1.7.02 3.28-.901 4.14-2.363l-5.82 10.09a3.262 3.262 0 0 1-2.84 1.622h-4.7V39l-4.7-8.168 4.7-8.169zm-7.76 3.584v9.35H10.5c-1.34.02-2.58-.681-3.24-1.842a3.7 3.7 0 0 1 .02-3.724s1.08-1.862 2.18-3.784h9.42zM9.42 15.015l4.7 8.169-3.02-1.762-4.62 7.988a4.76 4.76 0 0 0-.02 4.785L.64 24.105a3.265 3.265 0 0 1 .02-3.284l2.36-4.064L0 15.015h9.42zm25.6-2.662c.376.659.774 1.353 1.168 2.039l.261.456c1.435 2.497 2.751 4.772 2.751 4.772a3.7 3.7 0 0 1 .02 3.724c-.68 1.141-1.92 1.862-3.24 1.842h-4.34l-4.7-8.169zM26.1 0c-1.7 0-3.2.88-4.06 2.362-.495.856-2.003 3.468-3.51 6.081l-.334.58c-1.723 2.99-3.346 5.812-3.336 5.812L6.74 10.15s1.138-2.003 2.344-4.103l.279-.485c.93-1.619 1.852-3.208 2.277-3.9C12.22.68 13.24 0 14.46 0zm-.02.961c1.32-.02 2.56.72 3.22 1.862.48.82 1.66 2.883 1.66 2.883l3.02-1.762-4.72 8.168-9.4.02 3.04-1.721-2.2-3.804c1.08-1.902 2.16-3.764 2.16-3.764A3.722 3.722 0 0 1 26.08.96z"/></svg>