<svg xmlns="http://www.w3.org/2000/svg" width="40" height="40" viewBox="0 0 40 40">
  <g fill="none" fill-rule="evenodd">
    <path fill="#000" fill-rule="nonzero" d="M20,4 C11.163444,4 4,11.163444 4,20 C4,28.836556 11.163444,36 20,36 C28.836556,36 36,28.836556 36,20 C36,11.163444 28.836556,4 20,4 Z M20.026,31.2 C18.792,31.2 17.792,30.264 17.792,29.11 C17.792,27.954 18.792,27.018 20.026,27.018 C21.26,27.018 22.26,27.954 22.26,29.11 C22.26,30.264 21.26,31.2 20.026,31.2 L20.026,31.2 Z M22.26,23.69 C22.26,24.846 21.26,25.782 20.026,25.782 C18.792,25.782 17.792,24.846 17.792,23.69 L17.794,23.658 L16.018,13.774 L16.044,13.774 C16.0273981,13.6372827 16.0187169,13.4997197 16.018,13.362 C16.018,11.284 17.812,9.6 20.026,9.6 C22.24,9.6 24.032,11.284 24.032,13.362 C24.032,13.502 24.022,13.638 24.006,13.774 L24.032,13.774 L22.256,23.66 L22.26,23.692 L22.26,23.69 Z"/>
    <rect width="40" height="40"/>
  </g>
</svg>
