<svg xmlns="http://www.w3.org/2000/svg" width="40" height="40" viewBox="0 0 40 40">
  <g fill="none" fill-rule="evenodd">
    <path fill="#000" fill-rule="nonzero" d="M4.01834171,20.5384422 L12.6776382,13.8027638 L26.151005,27.2801508 L19.4173367,35.9394472 C19.4173367,35.9394472 19.5057789,33.8208543 16.5288945,33.051005 C13.7349246,32.329397 13.2484925,28.4520101 10.8143216,27.6479899 C8.38015075,26.8439698 7.94798995,25.1515075 6.82236181,23.3364322 C5.69673367,21.5213568 4.01834171,20.5384422 4.01834171,20.5384422 Z M29.9982412,19.5816583 L27.6947236,17.2781407 C31.3952261,14.0560302 34.2856784,11.4449749 34.8042714,10.9223618 C36.3402337,9.31797204 36.312589,6.78026731 34.7420402,5.20971855 C33.1714915,3.63916979 30.6337868,3.61152512 29.029397,5.14748744 C28.510804,5.6701005 25.8957286,8.55854271 22.6776382,12.2630653 L20.3741206,9.95954774 C19.3110963,8.89570093 17.5869986,8.89480109 16.5228643,9.95753769 L14.5992462,11.8811558 L28.0746231,25.3585427 L30.0002513,23.4309045 C31.0616487,22.3670012 31.0607492,20.6444525 29.9982412,19.5816583 L29.9982412,19.5816583 Z M30.5309045,9.42487437 C30.0343233,8.92829316 29.8403862,8.20451026 30.0221476,7.52616769 C30.2039089,6.84782512 30.7337548,6.31797926 31.4120973,6.13621792 C32.0904399,5.95445659 32.8142228,6.14839364 33.310804,6.64497487 C33.6803944,7.01310603 33.8881513,7.51327568 33.8881513,8.03492462 C33.8881513,8.55657357 33.6803944,9.05674322 33.310804,9.42487437 C32.9426729,9.79446479 32.4425032,10.0022216 31.9208543,10.0022216 C31.3992053,10.0022216 30.8990357,9.79446479 30.5309045,9.42487437 L30.5309045,9.42487437 Z"/>
    <rect width="40" height="40"/>
  </g>
</svg>
