<svg xmlns="http://www.w3.org/2000/svg" width="40" height="40" viewBox="0 0 40 40">
  <g fill="none" fill-rule="evenodd">
    <rect width="40" height="40"/>
    <path fill="#000" fill-rule="nonzero" d="M34.0678408,25.2027027 L34.0678408,25.0540541 C34.0678408,18.6621621 29.7934909,13.1621622 24.0452272,11.527027 C23.8978358,10.0405405 22.5713134,9 21.0973997,9 L19.0339204,9 C17.5600066,9 16.2334842,10.1891892 16.0860929,11.527027 C10.3378292,13.3108108 6.06347929,18.6621622 6.06347929,25.0540541 L6.06347929,25.2027027 C4.88434827,25.6486486 4,26.6891892 4,28.027027 C4,29.6621622 5.32652238,31 6.94782755,31 L33.0361011,31 C34.6574063,31 35.9839287,29.6621622 35.9839287,28.027027 C36.13132,26.6891892 35.2469718,25.6486487 34.0678408,25.2027027 Z M22.1291393,14.2027027 C22.1291393,13.6081081 22.5713134,13.1621622 23.1608789,13.1621622 C23.7504445,13.1621622 24.1926186,13.6081081 24.1926186,14.2027027 L24.1926186,21.9324324 C24.1926186,22.527027 23.7504445,22.972973 23.1608789,22.972973 C22.5713134,22.972973 22.1291393,22.5270271 22.1291393,21.9324324 L22.1291393,14.2027027 Z M16.0860929,14.2027027 C16.0860929,13.6081081 16.528267,13.1621622 17.1178325,13.1621622 C17.707398,13.1621622 18.1495721,13.6081081 18.1495721,14.2027027 L18.1495721,21.9324324 C18.1495721,22.527027 17.707398,22.972973 17.1178325,22.972973 C16.528267,22.972973 16.0860929,22.5270271 16.0860929,21.9324324 L16.0860929,14.2027027 Z M33.1834925,29.0675676 L7.09521892,29.0675676 C6.50565341,29.0675676 6.06347929,28.6216216 6.06347929,28.027027 C6.06347929,27.4324324 6.50565341,26.9864865 7.09521892,26.9864865 L33.1834925,26.9864865 C33.773058,26.9864865 34.2152322,27.4324324 34.2152322,28.027027 C34.2152322,28.6216216 33.6256667,29.0675676 33.1834925,29.0675676 Z"/>
  </g>
</svg>
