<svg xmlns="http://www.w3.org/2000/svg" width="40" height="40" viewBox="0 0 40 40">
  <g fill="none" fill-rule="evenodd">
    <rect width="40" height="40"/>
    <path fill="#000" fill-rule="nonzero" d="M25.312,23.0143737 L25.312,25.7992813 L32.688,25.7992813 C34.048,25.8151951 35.312,25.0831622 36,23.9214579 L36,23.9214579 L31.344,31.9419918 C30.864,32.7695072 29.984,33.2310062 29.072,33.2310062 L29.072,33.2310062 L25.312,33.2310062 L25.312,36 L21.552,29.5071869 L25.312,23.0143737 Z M19.104,25.8629363 L19.104,33.2946612 L12.4,33.2946612 C11.328,33.3105749 10.336,32.7535934 9.808,31.8305955 C9.28,30.9235113 9.28,29.7777207 9.824,28.8706366 L9.824,28.8706366 L9.84015462,28.8429543 C9.9623424,28.6335343 10.7584,27.2684394 11.568,25.8629363 L11.568,25.8629363 L19.104,25.8629363 Z M11.536,16.9353183 L15.296,23.4281314 L12.88,22.0277207 L9.184,28.3773101 C8.496,29.5549281 8.48,31.0030801 9.168,32.1806982 L9.168,32.1806982 L4.512,24.1601643 C4.032,23.3167351 4.064,22.3300821 4.528,21.550308 L4.528,21.550308 L6.416,18.3198152 L4,16.9353183 L11.536,16.9353183 Z M32.016,14.8187885 C33.488,17.3809035 35.36,20.5954825 35.36,20.5954825 C35.904,21.5025667 35.904,22.6324435 35.376,23.5554415 C34.832,24.4625257 33.84,25.0354209 32.784,25.0195072 L32.784,25.0195072 L29.312,25.0195072 L25.552,18.526694 Z M24.88,5 C23.52,5 22.32,5.70020534 21.632,6.87782341 C21.2408889,7.54973762 20.0596543,9.58276929 18.8692894,11.6343124 L18.57196,12.1468069 C17.1877531,14.5329957 15.8797037,16.7920945 15.888,16.7920945 L15.888,16.7920945 L9.392,13.0682752 L9.392,13.0682752 L9.41253342,13.0323889 C9.54748213,12.7965779 10.3280631,11.4331774 11.1720497,9.97148643 L11.4265656,9.53105974 C12.1923265,8.20710933 12.9622857,6.88691698 13.312,6.32084189 C13.776,5.54106776 14.592,5 15.568,5 L15.568,5 Z M24.864,5.76386037 C25.92,5.74794661 26.912,6.33675565 27.44,7.24383984 C27.824,7.8963039 28.768,9.53542094 28.768,9.53542094 L28.768,9.53542094 L31.184,8.13501027 L27.408,14.6278234 L19.888,14.6437372 L22.32,13.275154 L20.56,10.25154 C21.424,8.73973306 22.288,7.25975359 22.288,7.25975359 C22.816,6.33675565 23.808,5.76386037 24.864,5.76386037 Z"/>
  </g>
</svg>
