<svg xmlns="http://www.w3.org/2000/svg" width="36" height="40" viewBox="0 0 36 40"><path d="M28.024 26.998l6.57-6.478c.955-.956 1.423-1.97 1.406-3.045-.018-1.073-.523-2.106-1.513-3.097l-.913-.938c-.442.566-1.039 1.133-1.79 1.7a16.476 16.476 0 0 1-2.364 1.486c-.823.425-1.566.72-2.228.885-.663.165-1.107.124-1.334-.124a.373.373 0 0 1-.125-.301c0-.13.053-.254.16-.372a17.502 17.502 0 0 0 1.79-2.053c.514-.696.935-1.46 1.263-2.292.328-.832.546-1.779.653-2.84L20.9.908C20.338.354 19.69.053 18.957.006c-.734-.047-1.42.171-2.06.655-.638.484-1.088 1.24-1.35 2.266a70.474 70.474 0 0 1-1.04 3.725 39.172 39.172 0 0 1-.993 2.832c-.328.82-.653 1.56-.975 2.221l15.485 15.293zM8.009 39.794c1.027-.283 1.975-.867 2.847-1.752.513-.496 1.02-1.121 1.521-1.876.502-.755.988-1.558 1.46-2.407.47-.85.921-1.676 1.351-2.478.43-.803.836-1.493 1.217-2.071l4.01 3.982c.645.65 1.337.974 2.077.974s1.42-.313 2.041-.938l1.432-1.452c.645-.637.961-1.306.95-2.009-.013-.702-.347-1.377-1.003-2.026L12.413 14.378c-.656-.649-1.348-.98-2.076-.991-.728-.012-1.409.3-2.041.938l-1.45 1.416c-.633.625-.946 1.298-.94 2.018.006.72.337 1.404.993 2.053l4.01 3.982c-.584.366-1.28.761-2.085 1.186-.806.425-1.638.87-2.498 1.336-.859.466-1.673.947-2.443 1.443-.77.495-1.406.997-1.907 1.504-.883.861-1.47 1.8-1.763 2.814a5.24 5.24 0 0 0 .027 3.044c.31 1.015.913 1.965 1.808 2.85.895.897 1.856 1.496 2.882 1.796 1.026.301 2.053.31 3.08.027zM6.613 35.67c-.561 0-1.044-.198-1.45-.593a1.918 1.918 0 0 1-.609-1.425c0-.566.203-1.047.609-1.442.406-.395.889-.593 1.45-.593.573 0 1.06.198 1.459.593.4.395.6.876.6 1.442 0 .555-.2 1.03-.6 1.425-.4.395-.886.593-1.46.593z"/></svg>