<svg xmlns="http://www.w3.org/2000/svg" width="40" height="40" viewBox="0 0 40 40"><path d="M0 20.704l10.851-8.439 16.884 16.886L19.297 40s.11-2.654-3.62-3.619c-3.5-.904-4.11-5.762-7.16-6.77-3.051-1.007-3.593-3.127-5.003-5.401C2.104 21.936 0 20.704 0 20.704zm32.556-1.199L29.67 16.62c4.637-4.037 8.259-7.308 8.909-7.963a5.119 5.119 0 0 0-7.237-7.235c-.65.655-3.927 4.274-7.96 8.915L20.497 7.45a3.414 3.414 0 0 0-4.826-.003l-2.41 2.41 16.886 16.886 2.413-2.415a3.412 3.412 0 0 0-.003-4.823zm.668-12.725a2.462 2.462 0 1 1 3.483-3.483 2.458 2.458 0 0 1 0 3.483 2.459 2.459 0 0 1-3.483 0z"/></svg>