<svg xmlns="http://www.w3.org/2000/svg" width="40" height="40" viewBox="0 0 40 40">
  <g fill="none" fill-rule="evenodd">
    <path fill="#000" fill-rule="nonzero" d="M12.6,6.86 C12.8714517,7.24399435 12.9989151,7.71136014 12.96,8.18 L13.24,8.18 C13.24,6.92 13.94,6.36 14.8,6.36 L14.8,6.08 C14,6.1 13.28,5.54 13.28,4.28 L13.28,4 L12.98,4 L12.98,4.28 C12.98,5.54 12.28,6.1 11.42,6.1 L11.42,6.38 C11.8651131,6.35673657 12.2975175,6.53262992 12.6,6.86 L12.6,6.86 Z M10.68,16.2 L11.08,16.2 C11.08,14.78 11.56,13.4 13.64,13.36 L13.64,12.98 C12.9026125,13.0322323 12.1817929,12.7445667 11.6829798,12.1989899 C11.1841668,11.6534131 10.9620742,10.9097685 11.08,10.18 L11.08,9.78 L10.68,9.78 L10.68,10.18 C10.68,11.98 9.66,12.98 8.24,12.98 L8.24,13.4 C10.44,13.4 10.68,14.4 10.68,16.2 Z M36.0000178,14 C36.0073493,10.1761146 33.7400056,6.71410329 30.2318475,5.19259731 C26.7236894,3.67109133 22.6467266,4.38154466 19.86,7 L33.4,20.54 C35.0684978,18.7710335 35.9985113,16.4316918 36.0000178,14 Z M6.58,28.26 C5.31623448,29.4174252 4.93015791,31.2512889 5.62,32.82 L5.62,33.08 L4,34.84 L5.16,36 L6.82,34.34 C8.22567905,35.3671827 10.1343209,35.3671827 11.54,34.34 L12,34 L22.52,24.8 L16,18.28 L6.58,28.26 Z M33.54,23.5 L33.54,23.1 L33.1,23.1 L33.1,23.5 C33.1,25.3 32.1,26.3 30.86,26.3 L30.66,26.3 L30.66,26.74 L30.86,26.74 C32.1,26.74 33.1,27.74 33.1,29.54 L33.5,29.54 C33.5,27.74 34.5,26.74 35.74,26.74 L36,26.74 L36,26.3 L35.8,26.3 C34.54,26.3 33.54,25.3 33.54,23.5 Z M18.52,8.54 C16.9096346,10.8766417 16.4256503,13.8098803 17.2,16.54 L23.82,23.2 C26.5501197,23.9743497 29.4833583,23.4903654 31.82,21.88 L18.52,8.54 Z"/>
    <rect width="40" height="40"/>
  </g>
</svg>
