<svg xmlns="http://www.w3.org/2000/svg" width="30" height="40" viewBox="0 0 30 40"><path d="M30 34.68c0-.215-.028-.414-.08-.6-.321-.88-.909-1.32-1.766-1.32-.722 0-1.563.348-2.527 1.04l-5.333-1.96 5.412-1.962c.912.588 1.752.882 2.529.882.855 0 1.416-.44 1.684-1.32.053-.187.08-.388.08-.601 0-1.118-.721-1.72-2.166-1.798.588-.587.884-1.162.884-1.722 0-.585-.31-1.08-.925-1.48a2.233 2.233 0 0 0-1.002-.24c-1.176 0-1.979.946-2.406 2.84l-9.386 3.482-9.383-3.4c-.428-1.948-1.23-2.922-2.407-2.922-.347 0-.681.08-1.003.24-.586.4-.882.895-.882 1.48 0 .56.296 1.135.882 1.722C.735 27.12 0 27.72 0 28.839c0 .213.028.415.08.602.294.878.856 1.32 1.685 1.32.774 0 1.617-.295 2.526-.883l5.455 1.962L4.37 33.76c-.935-.666-1.764-1-2.485-1-.855 0-1.459.441-1.804 1.32-.055.187-.081.386-.081.601 0 1.12.735 1.72 2.205 1.8-.586.586-.882 1.161-.882 1.722 0 .584.296 1.077.882 1.48.375.213.735.318 1.084.318 1.095 0 1.885-.933 2.367-2.8l9.343-3.4 9.345 3.4c.48 1.867 1.283 2.8 2.406 2.8.322 0 .667-.105 1.043-.318.615-.403.924-.896.924-1.48 0-.56-.296-1.136-.883-1.723C29.278 36.4 30 35.8 30 34.68zM8.503 23.158v.603c0 .746.252 1.373.762 1.878.507.508 1.135.788 1.884.842.776.053 1.35-.08 1.726-.4a3.268 3.268 0 0 0 1.964.638c.668 0 1.285-.199 1.844-.598.375.292.923.413 1.645.36.749-.08 1.377-.367 1.885-.86.507-.496.762-1.114.762-1.86v-.44c2.886-.747 5.12-2 6.697-3.762 1.525-1.68 2.286-3.666 2.286-5.96a8.55 8.55 0 0 0-.16-1.601c-.535-3.41-2.112-6.226-4.732-8.439C22.311 1.187 18.956 0 15 0 11.04 0 7.686 1.173 4.932 3.518 2.313 5.76.75 8.588.242 11.998A8.432 8.432 0 0 0 .08 13.6c0 2.24.733 4.198 2.206 5.88 1.469 1.679 3.542 2.907 6.216 3.678zM18.107 9.18c.79-.92 1.746-1.38 2.868-1.38 1.15 0 2.118.46 2.91 1.38.786.918 1.181 2.032 1.181 3.338 0 1.307-.395 2.42-1.182 3.34-.79.922-1.759 1.38-2.909 1.38-1.122 0-2.078-.459-2.868-1.38-.788-.92-1.184-2.033-1.184-3.34 0-1.306.396-2.42 1.184-3.338zm-4.251 9.17c.388-.5.768-.75 1.143-.75s.729.275 1.063.832c.334.553.502 1.08.502 1.582 0 .764-.508 1.146-1.525 1.146-.667 0-1.163-.173-1.485-.514-.187-.213-.278-.476-.278-.793 0-.5.193-1.001.58-1.503zm-8.08-9.17C6.577 8.26 7.54 7.8 8.662 7.8c1.123 0 2.086.46 2.888 1.38.803.918 1.204 2.032 1.204 3.338 0 1.307-.401 2.42-1.204 3.34-.802.922-1.765 1.38-2.888 1.38-1.122 0-2.085-.459-2.886-1.38-.803-.92-1.204-2.033-1.204-3.34 0-1.306.401-2.42 1.204-3.338z"/></svg>