<svg xmlns="http://www.w3.org/2000/svg" width="40" height="40" viewBox="0 0 40 40">
  <g fill="none" fill-rule="evenodd">
    <path fill="#000" fill-rule="nonzero" d="M25.2614992,6.0325531 C21.2989247,6.0116091 17.8291601,8.14762167 15.9473391,11.3496311 C14.8847823,10.8684626 13.7328964,10.6161774 12.5664914,10.6091601 C7.85339876,10.5609341 4.03248826,14.3542151 4.0073705,19.1034772 C4.00284931,19.5586107 4.03952122,20.0092229 4.10332026,20.448281 L4.12391679,20.5909498 C4.65992936,23.7537755 7.41584773,26.052551 10.6002747,26.052551 L27.4668367,26.052551 C30.9501648,26.052551 34.0888776,23.8874019 35.2885008,20.5929592 C35.3045761,20.5472449 35.3231633,20.496507 35.341248,20.448281 C35.7436312,19.2938795 35.9487801,18.0799687 35.9480943,16.857449 C35.950102,10.8919859 31.1847645,6.06485869 25.2604945,6.0325531 M12.5750314,32.8780455 C12.1254239,33.7360675 11.1016248,34.0435087 10.2873077,33.5758163 C9.47098115,33.1051099 9.17810831,32.0245447 9.62369701,31.1690345 C10.0758163,30.313022 13.1512323,28.1106986 13.1512323,28.1106986 C13.1512323,28.1106986 13.0226295,32.0245447 12.5750314,32.8780455 M30.352865,32.8780455 C30.1344363,33.2873237 29.7607893,33.5917328 29.31581,33.7229313 C28.8708306,33.8541298 28.391803,33.8011249 27.9862716,33.5758163 C27.1448273,33.1005887 26.839898,32.0245447 27.3025667,31.1690345 C27.7672449,30.313022 30.9486578,28.1106986 30.9486578,28.1106986 C30.9486578,28.1106986 30.8180455,32.0245447 30.352865,32.8780455 M21.4737441,32.8780455 C21.0221272,33.7360675 20.0008399,34.0435087 19.184011,33.5758163 C18.3701962,33.1005887 18.075314,32.0245447 18.5229121,31.1690345 C18.9725196,30.313022 22.0504474,28.1106986 22.0504474,28.1106986 C22.0504474,28.1106986 21.923854,32.0245447 21.4742465,32.8780455"/>
    <rect width="40" height="40"/>
  </g>
</svg>
