<svg xmlns="http://www.w3.org/2000/svg" width="30" height="30" viewBox="0 0 30 30">
  <path fill-rule="evenodd" d="M25,0 C27.7614237,0 30,2.23857625 30,5 L30,25 C30,27.7614237 27.7614237,30 25,30 L5,30 C2.23857625,30 0,27.7614237 0,25 L0,5 C0,2.23857625 2.23857625,0 5,0 L25,0 Z M22,6 L8,6 C6.40231912,6 5.09633912,7.24891996 5.00509269,8.82372721 L5,9 L5,21 C5,22.5976809 6.24891996,23.9036609 7.82372721,23.9949073 L8,24 L22,24 C23.5976809,24 24.9036609,22.75108 24.9949073,21.1762728 L25,21 L25,9 C25,7.40231912 23.75108,6.09633912 22.1762728,6.00509269 L22,6 Z M24,19 L24,21 L23.9945143,21.1492623 C23.9219826,22.1323792 23.1387735,22.9178648 22.1566505,22.9939555 L22,23 L19,23 L19,19 L24,19 Z M11,19 L11,23 L8,23 L7.85073766,22.9945143 C6.86762078,22.9219826 6.08213523,22.1387735 6.00604447,21.1566505 L6,21 L6,19 L11,19 Z M19,15 L19,19 L11,19 L11,15 L19,15 Z M22,7 C23.0543618,7 23.9181651,7.81587779 23.9945143,8.85073766 L24,9 L24,15 L19,15 L19,7 L22,7 Z M11,7 L11,15 L6,15 L6,9 L6.00548574,8.85073766 C6.07801742,7.86762078 6.86122651,7.08213523 7.84334953,7.00604447 L8,7 L11,7 Z"/>
</svg>
