<svg xmlns="http://www.w3.org/2000/svg" width="30" height="30" viewBox="0 0 30 30">
  <path fill-rule="evenodd" d="M25,0 C27.7614237,-5.07265313e-16 30,2.23857625 30,5 L30,25 C30,27.7614237 27.7614237,30 25,30 L5,30 C2.23857625,30 -1.43817996e-15,27.7614237 0,25 L0,5 C-3.38176876e-16,2.23857625 2.23857625,-1.26909153e-15 5,0 L25,0 Z M20,5 L10,5 C8.8954305,5 8,5.8954305 8,7 L8,7 L8,11 L7,11 C5.8954305,11 5,11.8954305 5,13 L5,13 L5,19 C5,20.1045695 5.8954305,21 7,21 L7,21 L8,21 L8,22 C8,23.1045695 8.8954305,24 10,24 L10,24 L20,24 C21.1045695,24 22,23.1045695 22,22 L22,22 L22,21 L23,21 C24.1045695,21 25,20.1045695 25,19 L25,19 L25,13 C25,11.8954305 24.1045695,11 23,11 L23,11 L22,11 L22,7 C22,5.8954305 21.1045695,5 20,5 L20,5 Z M21,18 L21,22 L20.9932723,22.1166211 C20.9355072,22.6139598 20.5128358,23 20,23 L20,23 L10,23 L9.88337887,22.9932723 C9.38604019,22.9355072 9,22.5128358 9,22 L9,22 L9,18 L21,18 Z M19,20 L11,20 L11,21 L19,21 L19,20 Z M22.5,13 C22.7761424,13 23,13.2238576 23,13.5 C23,13.7761424 22.7761424,14 22.5,14 L22.5,14 L21.5,14 L21.4101244,13.9919443 C21.1768752,13.9496084 21,13.7454599 21,13.5 C21,13.2238576 21.2238576,13 21.5,13 L21.5,13 Z M19.1275656,13 C19.403708,13 19.6275656,13.2238576 19.6275656,13.5 C19.6275656,13.7761424 19.403708,14 19.1275656,14 C18.8514233,14 18.6275656,13.7761424 18.6275656,13.5 C18.6275656,13.2238576 18.8514233,13 19.1275656,13 Z M20,6 L20.1166211,6.00672773 C20.6139598,6.06449284 21,6.48716416 21,7 L21,7 L21,11 L9,11 L9,7 L9.00672773,6.88337887 C9.06449284,6.38604019 9.48716416,6 10,6 L10,6 L20,6 Z"/>
</svg>
