<svg xmlns="http://www.w3.org/2000/svg" width="30" height="30" viewBox="0 0 30 30">
  <g fill="none" fill-rule="evenodd">
    <rect width="30" height="30" fill="#000" rx="5"/>
    <path fill="#FFF" fill-rule="nonzero" d="M16.951381,10.006148 L18.0396176,11.5703227 L23.3457737,19.2000489 C23.8961516,19.9915099 24.1116877,20.9707153 23.9449559,21.9222029 C23.7782241,22.8736904 23.2428856,23.7194998 22.4567352,24.2735207 L22.3604784,24.340826 C21.8164041,24.7245739 21.1829366,24.9467693 20.5310651,24.9915531 L20.3131903,24.9998885 C20.0948286,25.0016095 19.8752985,24.9834224 19.657229,24.9447397 C18.7122615,24.7771146 17.8721398,24.2383609 17.3217023,23.4470119 L10.9286464,14.253111 C10.3777115,13.4617163 10.1617139,12.4823092 10.3282058,11.5305073 C10.4946977,10.5787054 11.0300297,9.73253928 11.816348,9.1782931 L11.9139417,9.11098782 C13.5505704,7.95790063 15.8056404,8.35862983 16.951381,10.006148 Z M13.0984351,10.5095915 L12.9513761,10.6038189 L12.9513761,10.6024728 L12.8537824,10.6711242 C12.0906745,11.2090338 11.8580795,12.242528 12.3163486,13.0591154 L12.4099316,13.207187 L13.498,14.772 L16.558,12.614 L15.4700958,11.0507259 C14.9358647,10.2823634 13.9094382,10.0481669 13.0984351,10.5095915 Z M7.0863958,11.345523 L8.18800139,11.4707109 C8.42489812,11.4975411 8.64024445,11.6217729 8.78303568,11.8139821 C8.92582691,12.0061912 8.98336171,12.2492805 8.94201299,12.4856744 C8.85211159,12.997491 8.38283962,13.3509847 7.8698192,13.2933378 L6.76687669,13.1681499 C6.53025693,13.1412864 6.31515171,13.0172468 6.17240175,12.825348 C6.02965179,12.6334493 5.97192493,12.390721 6.01286509,12.1545325 L6.01286509,12.1531864 C6.10278737,11.6407946 6.57289035,11.2871159 7.0863958,11.345523 Z M10.6077904,5.69591804 L11.3872031,6.81587785 C11.6664204,7.23467814 11.5614273,7.80144903 11.1510385,8.09073596 C10.7406496,8.3800229 10.1758066,8.28542572 9.88051682,7.87795514 L9.10110412,6.75664921 C8.96147742,6.55550829 8.90697688,6.30673553 8.94960445,6.06511502 C8.99223201,5.82349451 9.12849183,5.60884145 9.32837711,5.4684262 L9.32704019,5.4684262 C9.74312293,5.17524525 10.3164549,5.27708271 10.6077904,5.69591804 Z M16.5182254,5.01478863 C16.754798,5.05684424 16.9641128,5.19420575 17.0978347,5.39515358 C17.2315566,5.59610142 17.2781236,5.843261 17.2267824,6.07955814 L17.004857,7.10259834 C16.895061,7.60771659 16.4089597,7.93559952 15.9032514,7.84564861 C15.6669662,7.80356486 15.4578938,7.66640177 15.3242102,7.46576537 C15.1905265,7.26512898 15.1437627,7.01832555 15.1946943,6.78222523 L15.4166198,5.75918502 C15.52581,5.25352161 16.0120966,4.92491951 16.5182254,5.01478863 Z"/>
  </g>
</svg>
