<svg xmlns="http://www.w3.org/2000/svg" width="30" height="30" viewBox="0 0 30 30">
  <path fill-rule="evenodd" d="M25,0 C27.7614237,-5.07265313e-16 30,2.23857625 30,5 L30,25 C30,27.7614237 27.7614237,30 25,30 L5,30 C2.23857625,30 -1.43817996e-15,27.7614237 0,25 L0,5 C-3.38176876e-16,2.23857625 2.23857625,-1.26909153e-15 5,0 L25,0 Z M18.5762602,6 C18.1584477,7.17779606 16.7041575,7.92020134 15.0273836,7.92020134 C13.3503403,7.92020134 11.841202,7.17779603 11.4237128,6 L11.4237128,6 L5.37593826,8.72952533 L5.29893481,8.77278825 C5.13091378,8.88780763 5.04678086,9.09663362 5.09509408,9.300538 L5.09509408,9.300538 L6.07445945,13.4339178 L6.10789376,13.5458459 C6.27876757,14.0164676 6.77905593,14.2946575 7.27807535,14.1764195 C7.2848905,14.1748048 7.29168849,14.1731184 7.2984682,14.1713608 L7.2984682,14.1713608 L8.39094547,13.8881407 L8.02290662,22.9555899 L8.02489918,23.0723879 C8.06244688,23.5716601 8.46911436,23.9745244 8.98152828,23.9953228 C8.99503987,23.9958712 9.00856119,23.9961455 9.0220839,23.9961455 L9.0220839,23.9961455 L21.0013401,23.9961455 L21.1179612,23.9894178 C21.6152999,23.9316527 22.0013401,23.5089814 22.0013401,22.9961455 C22.0013401,22.981763 22.0010298,22.9673822 22.0004095,22.9530131 L22.0004095,22.9530131 L21.6090545,13.8881137 L22.7015318,14.1713338 L22.8161094,14.1940874 C23.3120294,14.2629779 23.7917857,13.9507088 23.9204818,13.4542837 C23.9222394,13.447504 23.9239258,13.440706 23.9255405,13.4338908 L23.9255405,13.4338908 L24.9049054,9.30051307 L24.9176437,9.21311165 C24.9291061,9.00981519 24.8150582,8.81570137 24.6240589,8.72949935 L24.6240589,8.72949935 Z M19.3362925,21 C19.6124349,21 19.8362925,21.2238576 19.8362925,21.5 C19.8362925,21.7761424 19.6124349,22 19.3362925,22 L19.3362925,22 L10.3362925,22 L10.2464169,21.9919443 C10.0131677,21.9496084 9.83629254,21.7454599 9.83629254,21.5 C9.83629254,21.2238576 10.0601502,21 10.3362925,21 L10.3362925,21 Z M19.3362925,19 C19.6124349,19 19.8362925,19.2238576 19.8362925,19.5 C19.8362925,19.7761424 19.6124349,20 19.3362925,20 L19.3362925,20 L10.3362925,20 L10.2464169,19.9919443 C10.0131677,19.9496084 9.83629254,19.7454599 9.83629254,19.5 C9.83629254,19.2238576 10.0601502,19 10.3362925,19 L10.3362925,19 Z M15.1692801,10 C15.5553447,10 15.9069259,10.222231 16.0725642,10.570957 L16.0725642,10.570957 L19.1540686,17.0585905 L19.1893832,17.149588 C19.283175,17.45672 19.140417,17.7943793 18.8416532,17.9362865 C18.7533353,17.9782359 18.6567871,18 18.5590129,18 L18.5590129,18 L18.1684307,18 L18.0380074,17.991486 C17.6950798,17.9464631 17.3958196,17.7259664 17.2536219,17.4038874 L17.2536219,17.4038874 L16.6882178,16.1232417 L12.985383,16.1232417 L12.3806409,17.4220902 L12.3191267,17.5347499 C12.1375047,17.8219033 11.8197244,18 11.4740871,18 L11.4740871,18 L11.0952527,18 L11.000123,17.99302 C10.689694,17.9470401 10.4514958,17.6794587 10.4514958,17.3562431 C10.4514958,17.2611105 10.4725803,17.1671604 10.5132326,17.0811511 L10.5132326,17.0811511 L13.5894649,10.5726773 L13.6512644,10.4609459 C13.8334007,10.1762092 14.1497841,10 14.493564,10 L14.493564,10 Z M14.8362925,11.8130103 L13.5545714,14.7799378 L16.1439071,14.7799378 L14.8362925,11.8130103 Z"/>
</svg>
