<svg xmlns="http://www.w3.org/2000/svg" width="780" height="140" viewBox="0 0 780 140"><g fill="none" fill-rule="evenodd" transform="translate(40 40)"><rect width="60" height="60" fill="#000" rx="10"/><path fill="#FFF" d="M46 16a4 4 0 0 1 4 4v22a4 4 0 0 1-4 4H18a4 4 0 0 1-3.995-3.8L14 42h27a5 5 0 0 0 5-5V16zm-6-4a4 4 0 0 1 4 4v20a4 4 0 0 1-4 4H14a4 4 0 0 1-4-4V16a4 4 0 0 1 4-4h26zM21.479 22.939a2 2 0 0 0-2.69.876l-4.724 9.29a2 2 0 0 0 1.782 2.907h22.577a2 2 0 0 0 1.561-3.25l-4.056-5.065a2 2 0 0 0-2.64-.435l-4.698 3.007a2 2 0 0 1-2.798-.664l-3.5-5.904a2 2 0 0 0-.814-.762zM32 16a4 4 0 1 0 0 8 4 4 0 0 0 0-8z"/><rect width="60" height="60" x="80" fill="#000" rx="10"/><rect width="60" height="60" x="160" fill="#000" rx="10"/><path fill="#FFF" fill-rule="nonzero" d="M111.667 11.667V15a1.667 1.667 0 0 1-3.334 0v-3.333a1.667 1.667 0 0 1 3.334 0zM110 43.333c-.92 0-1.667.747-1.667 1.667v3.333a1.667 1.667 0 0 0 3.334 0V45c0-.92-.747-1.667-1.667-1.667zM95.858 15.858a1.667 1.667 0 0 0 0 2.357l2.357 2.357a1.667 1.667 0 1 0 2.357-2.357l-2.357-2.357a1.667 1.667 0 0 0-2.357 0zm23.57 23.57c-.65.65-.65 1.706 0 2.357l2.357 2.357a1.667 1.667 0 1 0 2.357-2.357l-2.357-2.357a1.666 1.666 0 0 0-2.357 0zM90 30c0 .92.746 1.667 1.667 1.667H95a1.667 1.667 0 0 0 0-3.334h-3.333c-.92 0-1.667.747-1.667 1.667zm33.333 0c0 .92.747 1.667 1.667 1.667h3.333a1.667 1.667 0 1 0 0-3.334H125c-.92 0-1.667.747-1.667 1.667zM95.858 44.142a1.667 1.667 0 0 0 2.357 0l2.357-2.357a1.667 1.667 0 0 0-2.357-2.357l-2.357 2.357a1.667 1.667 0 0 0 0 2.357zm23.57-23.57c.65.65 1.706.65 2.357 0l2.357-2.357a1.667 1.667 0 1 0-2.357-2.357l-2.357 2.357a1.666 1.666 0 0 0 0 2.357zM120 30c0 5.523-4.477 10-10 10s-10-4.477-10-10 4.477-10 10-10 10 4.477 10 10zm74.675-18C202.352 14.214 208 21.21 208 29.6c0 10.16-8.235 18.4-18.396 18.4-8.39 0-15.39-5.651-17.604-13.325 2.452 1.41 5.256 2.282 8.288 2.282 9.211 0 16.672-7.467 16.672-16.673 0-3.032-.87-5.837-2.285-8.284zm-15.19 10.485l1.414 3.586 3.586 1.414L180.9 28.9l-1.414 3.586-1.414-3.586-3.586-1.414 3.586-1.414 1.414-3.586zm8.172-6.828l1.131 2.868 2.869 1.132-2.869 1.131-1.131 2.869-1.132-2.869-2.868-1.131 2.868-1.132 1.132-2.868zm-9-2l.848 2.151 2.152.849-2.152.848-.848 2.152-.849-2.152-2.151-.848 2.151-.849.849-2.151z"/><rect width="60" height="60" x="560" fill="#000" rx="10"/><rect width="60" height="60" x="640" fill="#000" rx="10"/><path fill="#FFF" fill-rule="nonzero" d="M575 32.5c-2.758 0-5 2.242-5 5V43c0 2.757 2.242 5 5 5h7.5c2.756 0 5-2.243 5-5v-5.5c0-2.758-2.244-5-5-5H575zm26.25-9.982v8.232a1.25 1.25 0 1 0 2.5 0V19.5c0-.69-.56-1.25-1.25-1.25h-11.25a1.25 1.25 0 1 0 0 2.5h8.232l-8.366 8.366a1.25 1.25 0 1 0 1.768 1.768l8.366-8.366zM575 12c-2.758 0-5 2.242-5 5v11.75a1.25 1.25 0 1 0 2.5 0V17c0-1.378 1.12-2.5 2.5-2.5h30c1.378 0 2.5 1.122 2.5 2.5v26c0 1.378-1.122 2.5-2.5 2.5h-13.75a1.25 1.25 0 1 0 0 2.5H605c2.756 0 5-2.242 5-5V17c0-2.758-2.244-5-5-5h-30zm80 20.5c-2.758 0-5 2.242-5 5V43c0 2.758 2.242 5 5 5h7.5c2.756 0 5-2.242 5-5v-5.5c0-2.758-2.244-5-5-5H655zM685 12c2.756 0 5 2.242 5 5v26c0 2.758-2.244 5-5 5h-11.75c-.69 0-1.25-.559-1.25-1.25V36a8 8 0 0 0-8-8h-12.75c-.69 0-1.25-.56-1.25-1.25V17c0-2.758 2.242-5 5-5zm-22.5 23c1.378 0 2.5 1.122 2.5 2.5V43c0 1.378-1.122 2.5-2.5 2.5H655c-1.38 0-2.5-1.122-2.5-2.5v-5.5c0-1.378 1.12-2.5 2.5-2.5h7.5zm22-18.75c-.332 0-.65.131-.884.366l-8.366 8.366V18.75a1.25 1.25 0 1 0-2.5 0V28c0 .69.56 1.25 1.25 1.25h9.25a1.25 1.25 0 1 0 0-2.5h-6.232l8.366-8.366a1.25 1.25 0 0 0-.884-2.134z"/><rect width="60" height="60" x="240" fill="#000" rx="10"/><path fill="#FFF" fill-rule="nonzero" d="M280 10a4 4 0 0 1 4 4v8h2a4 4 0 0 1 4 4v12a4 4 0 0 1-4 4h-2v2a4 4 0 0 1-4 4h-20a4 4 0 0 1-4-4v-2h-2a4 4 0 0 1-4-4V26a4 4 0 0 1 4-4h2v-8a4 4 0 0 1 4-4h20zm2 26h-24v8a2 2 0 0 0 2 2h20a2 2 0 0 0 2-2v-8zm-4 4v2h-16v-2h16zm7-14h-2a1 1 0 1 0 0 2h2a1 1 0 1 0 0-2zm-6.745 0a1 1 0 1 0 0 2 1 1 0 0 0 0-2zM280 12h-20a2 2 0 0 0-2 2v8h24v-8a2 2 0 0 0-1.85-1.995L280 12z"/><rect width="60" height="60" x="320" fill="#000" rx="10"/><rect width="60" height="60" x="400" fill="#000" rx="10"/><path fill="#FFF" fill-rule="nonzero" d="M430.5 14l12.225 25.26c1.167 2.61 2.125 4.253 2.875 4.93.567.513 1.367.81 2.4.893V46h-16.4v-.917h.675c1.317 0 2.242-.182 2.775-.545.367-.265.55-.645.55-1.14 0-.223-.028-.45-.084-.683l-.066-.234c-.033-.149-.283-.768-.75-1.859l-1.8-4.188h-11.975l-1.425 3.271c-.467 1.09-.7 1.991-.7 2.701 0 .942.383 1.636 1.15 2.082.45.265 1.558.463 3.325.595V46H412v-.917c1.217-.182 2.217-.681 3-1.5.783-.817 1.75-2.507 2.9-5.067L430.025 14h.475zm-3.5 8.993l-5.2 11.53h10.25L427 22.994z"/><rect width="60" height="60" x="480" fill="#000" rx="10"/><path fill="#FFF" fill-rule="nonzero" d="M528 46h-7.88l-3.133-7.507h-14.341L499.685 46H492l13.974-32h7.66L528 46zm-13.338-12.88l-4.943-11.868-4.846 11.868h9.79zM352.39 38.605l-2.599 7.397c-.2 1-1.4 1.999-2.999 2.799-1.799.8-4.198 1.199-6.797 1.199-2.598 0-4.997-.4-6.796-1.2-2-.999-3.199-2.398-3.199-3.798 0-.8.4-1.599.8-2.199l16.392-17.992 4.598-4.997 8.396-9.396c.4-.4 1-.4 1.4-.2.4.2.6.8.4 1.2l-4.998 14.393-4.598 12.794zm1.138 2.988l5.014-13.948 10.64 12.56c.6.6.8 1.399.8 1.799 0 .8-.4 1.999-2.599 2.998-1.6.6-3.398 1-5.397 1-2 0-3.999-.4-5.398-.8-1.8-.8-2.399-1.6-2.599-2.399l-.46-1.21zm-7.171-18.935l-4.362-11.24c-.2-.4-.2-.8.4-1.2.6-.4.999-.2 1.399.2l6.642 7.805-4.08 4.435zm-.364 24.343c1.2-.6 1.999-1.2 1.999-1.999 0-.8-.8-1.4-2-1.999-1.598-.6-3.798-1-5.997-1s-4.398.4-5.997 1c-1.2.6-1.999 1.2-1.999 2 0 .799.8 1.399 2 1.998 1.598.6 3.797 1 5.996 1 2.2 0 4.399-.4 5.998-1zm9.995-4.997c0 .714 1.143 1.374 2.999 1.731 1.855.357 4.142.357 5.997 0 1.856-.357 2.999-1.017 2.999-1.731 0-.715-1.143-1.375-2.999-1.732-1.855-.357-4.142-.357-5.997 0-1.856.357-2.999 1.017-2.999 1.732z"/></g></svg>