<svg xmlns="http://www.w3.org/2000/svg" width="30" height="30" viewBox="0 0 30 30">
  <g fill="none" fill-rule="evenodd">
    <rect width="30" height="30" fill="#000" rx="5"/>
    <path fill="#FFF" fill-rule="nonzero" d="M17.33775,6 C21.17625,7.10703459 24,10.6053314 24,14.800025 C24,19.8801213 19.8825,24 14.802,24 C10.6074375,24 7.107,21.1744742 6,17.3375418 C7.22625,18.0429388 8.628,18.4783274 10.1439375,18.4783274 C14.7496875,18.4783274 18.4801875,14.7448983 18.4801875,10.1418169 C18.4801875,8.62583206 18.045375,7.22347573 17.33775,6 Z M10.7426407,11.2426407 L11.5732442,13.348664 C11.6748885,13.6063867 11.8788947,13.8103929 12.1366174,13.9120372 L14.2426407,14.7426407 L12.1366174,15.5732442 C11.8788947,15.6748885 11.6748885,15.8788947 11.5732442,16.1366174 L10.7426407,18.2426407 L9.91203721,16.1366174 C9.81039286,15.8788947 9.60638666,15.6748885 9.34866397,15.5732442 L7.24264069,14.7426407 L9.34866397,13.9120372 C9.60638666,13.8103929 9.81039286,13.6063867 9.91203721,13.348664 L10.7426407,11.2426407 Z M14.8284271,6.82842712 L15.5176092,8.57587176 C15.6192536,8.83359445 15.8232598,9.03760066 16.0809825,9.139245 L17.8284271,9.82842712 L16.0809825,10.5176092 C15.8232598,10.6192536 15.6192536,10.8232598 15.5176092,11.0809825 L14.8284271,12.8284271 L14.139245,11.0809825 C14.0376007,10.8232598 13.8335945,10.6192536 13.5758718,10.5176092 L11.8284271,9.82842712 L13.5758718,9.139245 C13.8335945,9.03760066 14.0376007,8.83359445 14.139245,8.57587176 L14.8284271,6.82842712 Z M9.32842712,6.82842712 L9.87618789,8.21729312 C9.97783224,8.47501581 10.1818384,8.67902201 10.4395611,8.78066636 L11.8284271,9.32842712 L10.4395611,9.87618789 C10.1818384,9.97783224 9.97783224,10.1818384 9.87618789,10.4395611 L9.32842712,11.8284271 L8.78066636,10.4395611 C8.67902201,10.1818384 8.47501581,9.97783224 8.21729312,9.87618789 L6.82842712,9.32842712 L8.21729312,8.78066636 C8.47501581,8.67902201 8.67902201,8.47501581 8.78066636,8.21729312 L9.32842712,6.82842712 Z"/>
  </g>
</svg>
