<svg xmlns="http://www.w3.org/2000/svg" width="30" height="30" viewBox="0 0 30 30">
  <path fill-rule="evenodd" d="M25,0 C27.7614237,-5.07265313e-16 30,2.23857625 30,5 L30,25 C30,27.7614237 27.7614237,30 25,30 L5,30 C2.23857625,30 -1.43817996e-15,27.7614237 0,25 L0,5 C-3.38176876e-16,2.23857625 2.23857625,-1.26909153e-15 5,0 L25,0 Z M8.01977401,17 C7.64689266,17 7.34180791,17.3050847 7.34180791,17.6779661 L7.34180791,17.6779661 L7.34180791,22.7253554 L6.15536723,21.5389147 L6.07264407,21.4687452 C5.81118644,21.2816266 5.43898305,21.3050164 5.19491525,21.5389147 C4.93502825,21.7988017 4.93502825,22.2281803 5.19491525,22.4993667 L5.19491525,22.4993667 L7.48870056,24.793152 L7.57385311,24.8663724 C7.6920904,24.953152 7.82768362,24.9965418 7.96327684,24.9965418 L7.96327684,24.9965418 L8.03107345,24.9965418 L8.13358192,24.9884062 C8.27062147,24.9667113 8.40621469,24.9016266 8.50564972,24.793152 L8.50564972,24.793152 L10.799435,22.4993667 L10.8696045,22.4166435 C11.0567232,22.1551859 11.0333333,21.7829825 10.799435,21.5389147 C10.5621469,21.2677283 10.1327684,21.2677283 9.87288136,21.5389147 L9.87288136,21.5389147 L8.69774011,22.714056 L8.69774011,17.6779661 L8.69035431,17.5781304 C8.64170986,17.2521362 8.35875706,17 8.01977401,17 Z M24,21 L13,21 C12.4477153,21 12,21.4477153 12,22 C12,22.5522847 12.4477153,23 13,23 L13,23 L24,23 C24.5522847,23 25,22.5522847 25,22 C25,21.4477153 24.5522847,21 24,21 L24,21 Z M20,17.5 L13,17.5 C12.4477153,17.5 12,17.9477153 12,18.5 C12,19.0522847 12.4477153,19.5 13,19.5 L13,19.5 L20,19.5 C20.5522847,19.5 21,19.0522847 21,18.5 C21,17.9477153 20.5522847,17.5 20,17.5 L20,17.5 Z M24,14 L13,14 C12.4477153,14 12,14.4477153 12,15 C12,15.5522847 12.4477153,16 13,16 L13,16 L24,16 C24.5522847,16 25,15.5522847 25,15 C25,14.4477153 24.5522847,14 24,14 L24,14 Z M8.03107345,5 L7.96327684,5 C7.79378531,5 7.62429379,5.06779661 7.48870056,5.20338983 L7.48870056,5.20338983 L5.19491525,7.49717514 C4.93502825,7.76836158 4.93502825,8.19774011 5.19491525,8.45762712 C5.46610169,8.71751412 5.89548023,8.71751412 6.15536723,8.45762712 L6.15536723,8.45762712 L7.34180791,7.27118644 L7.34180791,12.3185757 C7.34180791,12.6914571 7.64689266,12.9965418 8.01977401,12.9965418 C8.39265537,12.9965418 8.69774011,12.6914571 8.69774011,12.3185757 L8.69774011,12.3185757 L8.69774011,7.28248588 L9.87288136,8.45762712 C10.1327684,8.72881356 10.5621469,8.72881356 10.799435,8.45762712 C11.059322,8.18644068 11.059322,7.75706215 10.799435,7.49717514 L10.799435,7.49717514 L8.50564972,5.20338983 C8.38135593,5.06779661 8.20056497,5 8.03107345,5 L8.03107345,5 Z M20,10.5 L13,10.5 C12.4477153,10.5 12,10.9477153 12,11.5 C12,12.0522847 12.4477153,12.5 13,12.5 L13,12.5 L20,12.5 C20.5522847,12.5 21,12.0522847 21,11.5 C21,10.9477153 20.5522847,10.5 20,10.5 L20,10.5 Z M24,7 L13,7 C12.4477153,7 12,7.44771525 12,8 C12,8.55228475 12.4477153,9 13,9 L13,9 L24,9 C24.5522847,9 25,8.55228475 25,8 C25,7.44771525 24.5522847,7 24,7 L24,7 Z"/>
</svg>
