<svg xmlns="http://www.w3.org/2000/svg" width="30" height="30" viewBox="0 0 30 30">
  <g fill="none" fill-rule="evenodd">
    <rect width="30" height="30" fill="#000" rx="5"/>
    <path fill="#FFF" fill-rule="nonzero" d="M22,6 C23.6568542,6 25,7.34314575 25,9 L25,21 C25,22.6568542 23.6568542,24 22,24 L8,24 C6.34314575,24 5,22.6568542 5,21 L5,9 C5,7.34314575 6.34314575,6 8,6 L22,6 Z M6,21 C6,22.0543618 6.81587779,22.9181651 7.85073766,22.9945143 L8,23 L11,23 L11,19 L19,19 L19,23 L22,23 C23.0543618,23 23.9181651,22.1841222 23.9945143,21.1492623 L24,21 L24,19 L19,19 L19,15 L24,15 L24,9 C24,7.8954305 23.1045695,7 22,7 L19,7 L19,15 L11,15 L11,7 L8,7 C6.9456382,7 6.08183488,7.81587779 6.00548574,8.85073766 L6,9 L6,15 L11,15 L11,19 L6,19 L6,21 Z"/>
  </g>
</svg>
