<svg xmlns="http://www.w3.org/2000/svg" width="30" height="30" viewBox="0 0 30 30">
  <g fill="none" fill-rule="evenodd">
    <rect width="30" height="30" fill="#000" rx="5"/>
    <path fill="#FFF" fill-rule="nonzero" d="M13,5 C16.7551223,5 19.8196406,7.95682698 19.9923239,11.6692498 C22.3611232,12.7914611 24,15.2043405 24,18 C24,21.8659932 20.8659932,25 17,25 C13.2448777,25 10.1803594,22.043173 10.0076761,18.3307502 C7.6388768,17.2085389 6,14.7956595 6,12 C6,8.13400675 9.13400675,5 13,5 Z M17,11 C13.1340068,11 10,14.1340068 10,18 C10,18.110871 10.0025776,18.2211399 10.0076761,18.3307502 C10.9154399,18.7597761 11.9296663,19 13,19 C16.8659932,19 20,15.8659932 20,12 C20,11.889129 19.9974224,11.7788601 19.9923239,11.6692498 C19.0845601,11.2402239 18.0703337,11 17,11 Z"/>
  </g>
</svg>
