<svg xmlns="http://www.w3.org/2000/svg" width="30" height="30" viewBox="0 0 30 30"><g fill="none" fill-rule="evenodd"><rect width="30" height="30" fill="#000" rx="5"/><path fill="#FFF" fill-rule="nonzero" d="M21.25 6A3.75 3.75 0 0 1 25 9.75v10.5A3.75 3.75 0 0 1 21.25 24H8.75A3.75 3.75 0 0 1 5 20.25V9.75A3.75 3.75 0 0 1 8.75 6h12.5zm.312 8.357a.951.951 0 0 0-.938.964v3.852l-.008.074a.315.315 0 0 1-.304.247h-3.75l-.126.01a.956.956 0 0 0-.811.955c0 .532.42.964.938.964h3.749l.18-.008c1.124-.093 2.008-1.062 2.008-2.242V15.32l-.009-.13a.947.947 0 0 0-.929-.834zm-8.127-5.786H9.687l-.179.008C8.384 8.673 7.5 9.64 7.5 10.82v3.852l.009.13c.062.471.454.834.928.834a.951.951 0 0 0 .938-.964V10.82l.008-.073a.315.315 0 0 1 .305-.248h3.747l.127-.009a.956.956 0 0 0 .81-.955.951.951 0 0 0-.937-.965z"/></g></svg>