<svg xmlns="http://www.w3.org/2000/svg" width="30" height="30" viewBox="0 0 30 30">
  <path fill-rule="evenodd" d="M25,0 C27.7614237,-5.07265313e-16 30,2.23857625 30,5 L30,25 C30,27.7614237 27.7614237,30 25,30 L5,30 C2.23857625,30 -1.43817996e-15,27.7614237 0,25 L0,5 C-3.38176876e-16,2.23857625 2.23857625,-1.26909153e-15 5,0 L25,0 Z M16.951381,10.006148 C15.8056404,8.35862983 13.5505704,7.95790063 11.9139417,9.11098782 L11.9139417,9.11098782 L11.816348,9.1782931 C11.0300297,9.73253928 10.4946977,10.5787054 10.3282058,11.5305073 C10.1617139,12.4823092 10.3777115,13.4617163 10.9286464,14.253111 L10.9286464,14.253111 L17.3217023,23.4470119 C17.8721398,24.2383609 18.7122615,24.7771146 19.657229,24.9447397 C19.8752985,24.9834224 20.0948286,25.0016095 20.3131903,24.9998885 L20.3131903,24.9998885 L20.5310651,24.9915531 C21.1829366,24.9467693 21.8164041,24.7245739 22.3604784,24.340826 L22.3604784,24.340826 L22.4567352,24.2735207 C23.2428856,23.7194998 23.7782241,22.8736904 23.9449559,21.9222029 C24.1116877,20.9707153 23.8961516,19.9915099 23.3457737,19.2000489 L23.3457737,19.2000489 L18.0396176,11.5703227 Z M13.0984351,10.5095915 C13.9094382,10.0481669 14.9358647,10.2823634 15.4700958,11.0507259 L15.4700958,11.0507259 L16.558,12.614 L13.498,14.772 L12.4099316,13.207187 L12.3163486,13.0591154 C11.8580795,12.242528 12.0906745,11.2090338 12.8537824,10.6711242 L12.8537824,10.6711242 L12.9513761,10.6024728 L12.9513761,10.6038189 Z M7.0863958,11.345523 C6.57289035,11.2871159 6.10278737,11.6407946 6.01286509,12.1531864 L6.01286509,12.1531864 C5.97192493,12.390721 6.02965179,12.6334493 6.17240175,12.825348 C6.31515171,13.0172468 6.53025693,13.1412864 6.76687669,13.1681499 L6.76687669,13.1681499 L7.8698192,13.2933378 C8.38283962,13.3509847 8.85211159,12.997491 8.94201299,12.4856744 C8.98336171,12.2492805 8.92582691,12.0061912 8.78303568,11.8139821 C8.64024445,11.6217729 8.42489812,11.4975411 8.18800139,11.4707109 L8.18800139,11.4707109 Z M10.6077904,5.69591804 C10.3164549,5.27708271 9.74312293,5.17524525 9.32704019,5.4684262 L9.32704019,5.4684262 C9.12849183,5.60884145 8.99223201,5.82349451 8.94960445,6.06511502 C8.90697688,6.30673553 8.96147742,6.55550829 9.10110412,6.75664921 L9.10110412,6.75664921 L9.88051682,7.87795514 C10.1758066,8.28542572 10.7406496,8.3800229 11.1510385,8.09073596 C11.5614273,7.80144903 11.6664204,7.23467814 11.3872031,6.81587785 L11.3872031,6.81587785 Z M16.5182254,5.01478863 C16.0120966,4.92491951 15.52581,5.25352161 15.4166198,5.75918502 L15.4166198,5.75918502 L15.1946943,6.78222523 C15.1437627,7.01832555 15.1905265,7.26512898 15.3242102,7.46576537 C15.4578938,7.66640177 15.6669662,7.80356486 15.9032514,7.84564861 C16.4089597,7.93559952 16.895061,7.60771659 17.004857,7.10259834 L17.004857,7.10259834 L17.2267824,6.07955814 C17.2781236,5.843261 17.2315566,5.59610142 17.0978347,5.39515358 C16.9641128,5.19420575 16.754798,5.05684424 16.5182254,5.01478863 Z"/>
</svg>
