<svg xmlns="http://www.w3.org/2000/svg" width="30" height="30" viewBox="0 0 30 30">
  <g fill="none" fill-rule="evenodd">
    <rect width="30" height="30" fill="#000" rx="5"/>
    <path fill="#FFF" fill-rule="nonzero" d="M15,22 C15.5522847,22 16,22.4477153 16,23 L16,24 C16,24.5522847 15.5522847,25 15,25 C14.4477153,25 14,24.5522847 14,24 L14,23 C14,22.4477153 14.4477153,22 15,22 Z M21.363961,19.9497475 L22.0710678,20.6568542 C22.4615921,21.0473785 22.4615921,21.6805435 22.0710678,22.0710678 C21.6805435,22.4615921 21.0473785,22.4615921 20.6568542,22.0710678 L19.9497475,21.363961 C19.5592232,20.9734367 19.5592232,20.3402718 19.9497475,19.9497475 C20.3402718,19.5592232 20.9734367,19.5592232 21.363961,19.9497475 Z M10.0502525,19.9497475 C10.4407768,20.3402718 10.4407768,20.9734367 10.0502525,21.363961 L9.34314575,22.0710678 C8.95262146,22.4615921 8.31945648,22.4615921 7.92893219,22.0710678 C7.5384079,21.6805435 7.5384079,21.0473785 7.92893219,20.6568542 L8.63603897,19.9497475 C9.02656326,19.5592232 9.65972824,19.5592232 10.0502525,19.9497475 Z M15,9 C18.31375,9 21,11.68625 21,15 C21,18.31375 18.31375,21 15,21 C11.68625,21 9,18.31375 9,15 C9,11.68625 11.68625,9 15,9 Z M24,14 C24.5522847,14 25,14.4477153 25,15 C25,15.5522847 24.5522847,16 24,16 L23,16 C22.4477153,16 22,15.5522847 22,15 C22,14.4477153 22.4477153,14 23,14 L24,14 Z M7,14 C7.55228475,14 8,14.4477153 8,15 C8,15.5522847 7.55228475,16 7,16 L6,16 C5.44771525,16 5,15.5522847 5,15 C5,14.4477153 5.44771525,14 6,14 L7,14 Z M22.0710678,7.92893219 C22.4615921,8.31945648 22.4615921,8.95262146 22.0710678,9.34314575 L21.363961,10.0502525 C20.9734367,10.4407768 20.3402718,10.4407768 19.9497475,10.0502525 C19.5592232,9.65972824 19.5592232,9.02656326 19.9497475,8.63603897 L20.6568542,7.92893219 C21.0473785,7.5384079 21.6805435,7.5384079 22.0710678,7.92893219 Z M9.34314575,7.92893219 L10.0502525,8.63603897 C10.4407768,9.02656326 10.4407768,9.65972824 10.0502525,10.0502525 C9.65972824,10.4407768 9.02656326,10.4407768 8.63603897,10.0502525 L7.92893219,9.34314575 C7.5384079,8.95262146 7.5384079,8.31945648 7.92893219,7.92893219 C8.31945648,7.5384079 8.95262146,7.5384079 9.34314575,7.92893219 Z M15,5 C15.5522847,5 16,5.44771525 16,6 L16,7 C16,7.55228475 15.5522847,8 15,8 C14.4477153,8 14,7.55228475 14,7 L14,6 C14,5.44771525 14.4477153,5 15,5 Z"/>
  </g>
</svg>
