<svg xmlns="http://www.w3.org/2000/svg" width="30" height="30" viewBox="0 0 30 30">
  <path fill-rule="evenodd" d="M25,0 C27.7614237,-5.07265313e-16 30,2.23857625 30,5 L30,25 C30,27.7614237 27.7614237,30 25,30 L5,30 C2.23857625,30 -1.43817996e-15,27.7614237 0,25 L0,5 C-3.38176876e-16,2.23857625 2.23857625,-1.26909153e-15 5,0 L25,0 Z M17.33775,6 C18.045375,7.22347573 18.4801875,8.62583206 18.4801875,10.1418169 C18.4801875,14.7448983 14.7496875,18.4783274 10.1439375,18.4783274 C8.628,18.4783274 7.22625,18.0429388 6,17.3375418 C7.107,21.1744742 10.6074375,24 14.802,24 C19.8825,24 24,19.8801213 24,14.800025 C24,10.6053314 21.17625,7.10703459 17.33775,6 Z M10.7426407,11.2426407 L9.91203721,13.348664 C9.81039286,13.6063867 9.60638666,13.8103929 9.34866397,13.9120372 L9.34866397,13.9120372 L7.24264069,14.7426407 L9.34866397,15.5732442 C9.60638666,15.6748885 9.81039286,15.8788947 9.91203721,16.1366174 L9.91203721,16.1366174 L10.742,18.241 L11.5732442,16.1366174 C11.6603679,15.9157122 11.8226962,15.7342723 12.0295954,15.6229313 L12.1366174,15.5732442 L14.2426407,14.7426407 L12.1366174,13.9120372 C11.8788947,13.8103929 11.6748885,13.6063867 11.5732442,13.348664 L11.5732442,13.348664 L10.7426407,11.2426407 Z M14.8284271,6.82842712 L14.139245,8.57587176 C14.0376007,8.83359445 13.8335945,9.03760066 13.5758718,9.139245 L13.5758718,9.139245 L11.8284271,9.82842712 L13.5758718,10.5176092 C13.8335945,10.6192536 14.0376007,10.8232598 14.139245,11.0809825 L14.139245,11.0809825 L14.8284271,12.8284271 L15.5176092,11.0809825 C15.6192536,10.8232598 15.8232598,10.6192536 16.0809825,10.5176092 L16.0809825,10.5176092 L17.8284271,9.82842712 L16.0809825,9.139245 C15.8232598,9.03760066 15.6192536,8.83359445 15.5176092,8.57587176 L15.5176092,8.57587176 L14.8284271,6.82842712 Z M9.32842712,6.82842712 L8.78066636,8.21729312 C8.67902201,8.47501581 8.47501581,8.67902201 8.21729312,8.78066636 L8.21729312,8.78066636 L6.82842712,9.32842712 L8.21729312,9.87618789 C8.47501581,9.97783224 8.67902201,10.1818384 8.78066636,10.4395611 L8.78066636,10.4395611 L9.32842712,11.8284271 L9.87618789,10.4395611 C9.97783224,10.1818384 10.1818384,9.97783224 10.4395611,9.87618789 L10.4395611,9.87618789 L11.8284271,9.32842712 L10.4395611,8.78066636 C10.1818384,8.67902201 9.97783224,8.47501581 9.87618789,8.21729312 L9.87618789,8.21729312 L9.32842712,6.82842712 Z"/>
</svg>
