<svg xmlns="http://www.w3.org/2000/svg" width="30" height="30" viewBox="0 0 30 30"><g fill="none" fill-rule="evenodd"><rect width="30" height="30" fill="#000" rx="5"/><path fill="#FFF" d="M21.25 6A3.75 3.75 0 0 1 25 9.75v3.964h-1.25V9.786a2.5 2.5 0 0 0-2.336-2.495l-.164-.005H8.75a2.5 2.5 0 0 0-2.5 2.5v10.428a2.5 2.5 0 0 0 2.5 2.5h5V24h-5A3.75 3.75 0 0 1 5 20.25V9.75A3.75 3.75 0 0 1 8.75 6h12.5zm1.25 9a2.5 2.5 0 0 1 2.5 2.5v4a2.5 2.5 0 0 1-2.5 2.5h-5a2.5 2.5 0 0 1-2.5-2.5v-4a2.5 2.5 0 0 1 2.5-2.5h5zM8.328 9.424a.681.681 0 0 1 .983 0l3.675 3.74v-2.522c0-.395.31-.714.694-.714.384 0 .695.32.695.714v4.286a.705.705 0 0 1-.695.715H9.513a.705.705 0 0 1-.694-.715c0-.394.31-.714.694-.714h2.53l-3.715-3.78a.729.729 0 0 1 0-1.01z"/></g></svg>