<svg xmlns="http://www.w3.org/2000/svg" width="30" height="30" viewBox="0 0 30 30">
  <g fill="none" fill-rule="evenodd">
    <rect width="30" height="30" fill="#000" rx="5"/>
    <path fill="#FFF" fill-rule="nonzero" d="M8.01977401,17 C8.39265537,17 8.69774011,17.3050847 8.69774011,17.6779661 L8.69774011,17.6779661 L8.69774011,22.714056 L9.87288136,21.5389147 C10.1327684,21.2677283 10.5621469,21.2677283 10.799435,21.5389147 C11.059322,21.8101012 11.059322,22.2394797 10.799435,22.4993667 L10.799435,22.4993667 L8.50564972,24.793152 C8.38135593,24.9287452 8.20056497,24.9965418 8.03107345,24.9965418 L8.03107345,24.9965418 L7.96327684,24.9965418 C7.79378531,24.9965418 7.62429379,24.9287452 7.48870056,24.793152 L7.48870056,24.793152 L5.19491525,22.4993667 C4.93502825,22.2281803 4.93502825,21.7988017 5.19491525,21.5389147 C5.46610169,21.2790277 5.89548023,21.2790277 6.15536723,21.5389147 L6.15536723,21.5389147 L7.34180791,22.7253554 L7.34180791,17.6779661 C7.34180791,17.3050847 7.64689266,17 8.01977401,17 Z M24,21 C24.5522847,21 25,21.4477153 25,22 C25,22.5522847 24.5522847,23 24,23 L13,23 C12.4477153,23 12,22.5522847 12,22 C12,21.4477153 12.4477153,21 13,21 L24,21 Z M20,17.5 C20.5522847,17.5 21,17.9477153 21,18.5 C21,19.0522847 20.5522847,19.5 20,19.5 L13,19.5 C12.4477153,19.5 12,19.0522847 12,18.5 C12,17.9477153 12.4477153,17.5 13,17.5 L20,17.5 Z M24,14 C24.5522847,14 25,14.4477153 25,15 C25,15.5522847 24.5522847,16 24,16 L13,16 C12.4477153,16 12,15.5522847 12,15 C12,14.4477153 12.4477153,14 13,14 L24,14 Z M8.03107345,5 C8.20056497,5 8.38135593,5.06779661 8.50564972,5.20338983 L10.799435,7.49717514 C11.059322,7.75706215 11.059322,8.18644068 10.799435,8.45762712 C10.5621469,8.72881356 10.1327684,8.72881356 9.87288136,8.45762712 L8.69774011,7.28248588 L8.69774011,12.3185757 C8.69774011,12.6914571 8.39265537,12.9965418 8.01977401,12.9965418 C7.64689266,12.9965418 7.34180791,12.6914571 7.34180791,12.3185757 L7.34180791,7.27118644 L6.15536723,8.45762712 C5.89548023,8.71751412 5.46610169,8.71751412 5.19491525,8.45762712 C4.93502825,8.19774011 4.93502825,7.76836158 5.19491525,7.49717514 L7.48870056,5.20338983 C7.62429379,5.06779661 7.79378531,5 7.96327684,5 L8.03107345,5 Z M20,10.5 C20.5522847,10.5 21,10.9477153 21,11.5 C21,12.0522847 20.5522847,12.5 20,12.5 L13,12.5 C12.4477153,12.5 12,12.0522847 12,11.5 C12,10.9477153 12.4477153,10.5 13,10.5 L20,10.5 Z M24,7 C24.5522847,7 25,7.44771525 25,8 C25,8.55228475 24.5522847,9 24,9 L13,9 C12.4477153,9 12,8.55228475 12,8 C12,7.44771525 12.4477153,7 13,7 L24,7 Z"/>
  </g>
</svg>
