<svg xmlns="http://www.w3.org/2000/svg" width="30" height="30" viewBox="0 0 30 30">
  <path fill-rule="evenodd" d="M25,0 C27.7614237,-5.07265313e-16 30,2.23857625 30,5 L30,25 C30,27.7614237 27.7614237,30 25,30 L5,30 C2.23857625,30 -1.43817996e-15,27.7614237 0,25 L0,5 C-3.38176876e-16,2.23857625 2.23857625,-1.26909153e-15 5,0 L25,0 Z M13,5 C9.13400675,5 6,8.13400675 6,12 C6,14.7956595 7.6388768,17.2085389 10.0076761,18.3307502 L10.0076761,18.3307502 L10.0230154,18.5717708 C10.3139257,22.1703334 13.3265108,25 17,25 C20.8659932,25 24,21.8659932 24,18 C24,15.2043405 22.3611232,12.7914611 19.9923239,11.6692498 C19.8196406,7.95682698 16.7551223,5 13,5 Z M17,11 C18.0703337,11 19.0845601,11.2402239 19.9923239,11.6692498 L19.9923239,11.6692498 L19.9980739,11.8341521 L19.9980739,11.8341521 L20,12 C20,15.8659932 16.8659932,19 13,19 C11.9296663,19 10.9154399,18.7597761 10.0076761,18.3307502 C10.0025776,18.2211399 10,18.110871 10,18 C10,14.1340068 13.1340068,11 17,11 Z"/>
</svg>
