<svg xmlns="http://www.w3.org/2000/svg" width="30" height="30" viewBox="0 0 30 30">
  <path fill-rule="evenodd" d="M25,0 C27.7614237,-5.07265313e-16 30,2.23857625 30,5 L30,25 C30,27.7614237 27.7614237,30 25,30 L5,30 C2.23857625,30 -1.43817996e-15,27.7614237 0,25 L0,5 C-3.38176876e-16,2.23857625 2.23857625,-1.26909153e-15 5,0 L25,0 Z M15,22 C14.4477153,22 14,22.4477153 14,23 L14,23 L14,24 C14,24.5522847 14.4477153,25 15,25 C15.5522847,25 16,24.5522847 16,24 L16,24 L16,23 C16,22.4477153 15.5522847,22 15,22 Z M21.363961,19.9497475 C20.9734367,19.5592232 20.3402718,19.5592232 19.9497475,19.9497475 C19.5592232,20.3402718 19.5592232,20.9734367 19.9497475,21.363961 L19.9497475,21.363961 L20.6568542,22.0710678 C21.0473785,22.4615921 21.6805435,22.4615921 22.0710678,22.0710678 C22.4615921,21.6805435 22.4615921,21.0473785 22.0710678,20.6568542 L22.0710678,20.6568542 Z M10.0502525,19.9497475 C9.65972824,19.5592232 9.02656326,19.5592232 8.63603897,19.9497475 L8.63603897,19.9497475 L7.92893219,20.6568542 C7.5384079,21.0473785 7.5384079,21.6805435 7.92893219,22.0710678 C8.31945648,22.4615921 8.95262146,22.4615921 9.34314575,22.0710678 L9.34314575,22.0710678 L10.0502525,21.363961 C10.4407768,20.9734367 10.4407768,20.3402718 10.0502525,19.9497475 Z M15,9 C11.68625,9 9,11.68625 9,15 C9,18.31375 11.68625,21 15,21 C18.31375,21 21,18.31375 21,15 C21,11.68625 18.31375,9 15,9 Z M24,14 L23,14 C22.4477153,14 22,14.4477153 22,15 C22,15.5522847 22.4477153,16 23,16 L23,16 L24,16 C24.5522847,16 25,15.5522847 25,15 C25,14.4477153 24.5522847,14 24,14 L24,14 Z M7,14 L6,14 C5.44771525,14 5,14.4477153 5,15 C5,15.5522847 5.44771525,16 6,16 L6,16 L7,16 C7.55228475,16 8,15.5522847 8,15 C8,14.4477153 7.55228475,14 7,14 L7,14 Z M22.0710678,7.92893219 C21.6805435,7.5384079 21.0473785,7.5384079 20.6568542,7.92893219 L20.6568542,7.92893219 L19.9497475,8.63603897 C19.5592232,9.02656326 19.5592232,9.65972824 19.9497475,10.0502525 C20.3402718,10.4407768 20.9734367,10.4407768 21.363961,10.0502525 L21.363961,10.0502525 L22.0710678,9.34314575 C22.4615921,8.95262146 22.4615921,8.31945648 22.0710678,7.92893219 Z M9.34314575,7.92893219 C8.95262146,7.5384079 8.31945648,7.5384079 7.92893219,7.92893219 C7.5384079,8.31945648 7.5384079,8.95262146 7.92893219,9.34314575 L7.92893219,9.34314575 L8.63603897,10.0502525 C9.02656326,10.4407768 9.65972824,10.4407768 10.0502525,10.0502525 C10.4407768,9.65972824 10.4407768,9.02656326 10.0502525,8.63603897 L10.0502525,8.63603897 Z M15,5 C14.4477153,5 14,5.44771525 14,6 L14,6 L14,7 C14,7.55228475 14.4477153,8 15,8 C15.5522847,8 16,7.55228475 16,7 L16,7 L16,6 C16,5.44771525 15.5522847,5 15,5 Z"/>
</svg>
