<svg xmlns="http://www.w3.org/2000/svg" width="30" height="30" viewBox="0 0 30 30">
  <g fill="none" fill-rule="evenodd">
    <rect width="30" height="30" fill="#000" rx="5"/>
    <path fill="#FFF" fill-rule="nonzero" d="M18.5762602,6 L24.6240589,8.72949935 C24.8423438,8.82801594 24.9601208,9.06747857 24.9049054,9.30051307 L24.9049054,9.30051307 L23.9255405,13.4338908 C23.9239258,13.440706 23.9222394,13.447504 23.9204818,13.4542837 C23.781886,13.9888954 23.2361435,14.3099296 22.7015318,14.1713338 L22.7015318,14.1713338 L21.6090545,13.8881137 L22.0004095,22.9530131 C22.0010298,22.9673822 22.0013401,22.981763 22.0013401,22.9961455 C22.0013401,23.5484303 21.5536248,23.9961455 21.0013401,23.9961455 L21.0013401,23.9961455 L9.0220839,23.9961455 C9.00856119,23.9961455 8.99503987,23.9958712 8.98152828,23.9953228 C8.42969791,23.9729246 8.00050837,23.5074203 8.02290662,22.9555899 L8.02290662,22.9555899 L8.39094547,13.8881407 L7.2984682,14.1713608 C7.29168849,14.1731184 7.2848905,14.1748048 7.27807535,14.1764195 C6.74066982,14.3037527 6.20179262,13.9713234 6.07445945,13.4339178 L6.07445945,13.4339178 L5.09509408,9.300538 C5.03987897,9.06750442 5.15765474,8.82804263 5.37593826,8.72952533 L5.37593826,8.72952533 L11.4237128,6 C11.841202,7.17779603 13.3503403,7.92020134 15.0273836,7.92020134 C16.7041575,7.92020134 18.1584477,7.17779606 18.5762602,6 L18.5762602,6 Z M19.3362925,21 L10.3362925,21 C10.0601502,21 9.83629254,21.2238576 9.83629254,21.5 C9.83629254,21.7761424 10.0601502,22 10.3362925,22 L10.3362925,22 L19.3362925,22 C19.6124349,22 19.8362925,21.7761424 19.8362925,21.5 C19.8362925,21.2238576 19.6124349,21 19.3362925,21 L19.3362925,21 Z M19.3362925,19 L10.3362925,19 C10.0601502,19 9.83629254,19.2238576 9.83629254,19.5 C9.83629254,19.7761424 10.0601502,20 10.3362925,20 L10.3362925,20 L19.3362925,20 C19.6124349,20 19.8362925,19.7761424 19.8362925,19.5 C19.8362925,19.2238576 19.6124349,19 19.3362925,19 L19.3362925,19 Z M15.1692801,10 L14.493564,10 C14.1068116,10 13.7547329,10.2230148 13.5894649,10.5726773 L13.5894649,10.5726773 L10.5132326,17.0811511 C10.4725803,17.1671604 10.4514958,17.2611105 10.4514958,17.3562431 C10.4514958,17.7117802 10.7397156,18 11.0952527,18 L11.0952527,18 L11.4740871,18 C11.862929,18 12.2165146,17.7745963 12.3806409,17.4220902 L12.3806409,17.4220902 L12.985383,16.1232417 L16.6882178,16.1232417 L17.2536219,17.4038874 C17.4135943,17.7662263 17.772349,18 18.1684307,18 L18.1684307,18 L18.5590129,18 C18.6567871,18 18.7533353,17.9782359 18.8416532,17.9362865 C19.1702934,17.7801886 19.3101665,17.3872307 19.1540686,17.0585905 L19.1540686,17.0585905 L16.0725642,10.570957 C15.9069259,10.222231 15.5553447,10 15.1692801,10 L15.1692801,10 Z M14.8362925,11.8130103 L16.1439071,14.7799378 L13.5545714,14.7799378 L14.8362925,11.8130103 Z"/>
  </g>
</svg>
