<svg xmlns="http://www.w3.org/2000/svg" width="30" height="30" viewBox="0 0 30 30">
  <path fill-rule="evenodd" d="M25,0 C27.7614237,-5.07265313e-16 30,2.23857625 30,5 L30,25 C30,27.7614237 27.7614237,30 25,30 L5,30 C2.23857625,30 -1.43817996e-15,27.7614237 0,25 L0,5 C-3.38176876e-16,2.23857625 2.23857625,-1.26909153e-15 5,0 L25,0 Z M22,6 L8,6 C6.34314575,6 5,7.34314575 5,9 L5,9 L5,21 C5,22.6568542 6.34314575,24 8,24 L8,24 L22,24 C23.6568542,24 25,22.6568542 25,21 L25,21 L25,9 C25,7.34314575 23.6568542,6 22,6 L22,6 Z M24,19 L24,21 L23.9945143,21.1492623 C23.9181651,22.1841222 23.0543618,23 22,23 L22,23 L19,23 L19,19 L24,19 Z M11,19 L11,23 L8,23 L7.85073766,22.9945143 C6.81587779,22.9181651 6,22.0543618 6,21 L6,21 L6,19 L11,19 Z M19,15 L19,19 L11,19 L11,15 L19,15 Z M22,7 C23.1045695,7 24,7.8954305 24,9 L24,9 L24,15 L19,15 L19,7 Z M11,7 L11,15 L6,15 L6,9 L6.00548574,8.85073766 C6.08183488,7.81587779 6.9456382,7 8,7 L8,7 L11,7 Z"/>
</svg>
