<svg xmlns="http://www.w3.org/2000/svg" width="30" height="30" viewBox="0 0 30 30">
  <g fill="none" fill-rule="evenodd">
    <rect width="30" height="30" fill="#000" rx="5"/>
    <path fill="#FFF" d="M23,8 C24.1045695,8 25,8.8954305 25,10 L25,21 C25,22.1045695 24.1045695,23 23,23 L9,23 C7.9456382,23 7.08183488,22.1841222 7.00548574,21.1492623 L7,21 L20.5,21 C21.8807119,21 23,19.8807119 23,18.5 L23,8 Z M20,6 C21.1045695,6 22,6.8954305 22,8 L22,18 C22,19.1045695 21.1045695,20 20,20 L7,20 C5.8954305,20 5,19.1045695 5,18 L5,8 C5,6.8954305 5.8954305,6 7,6 L20,6 Z M10.7392871,11.4692997 C10.247001,11.2189542 9.64497916,11.4150857 9.39463363,11.9073718 L9.39463363,11.9073718 L7.03225639,16.5528128 C6.96084272,16.6932426 6.92361915,16.8485585 6.92361915,17.0061035 C6.92361915,17.5583883 7.3713344,18.0061035 7.92361915,18.0061035 L7.92361915,18.0061035 L19.2120421,18.0061035 C19.4392714,18.0061035 19.6597254,17.9287155 19.8370963,17.7866848 C20.2681995,17.4414769 20.3378313,16.8121525 19.9926234,16.3810493 L19.9926234,16.3810493 L17.9645536,13.8483514 C17.6449335,13.4492029 17.075683,13.3554834 16.6449719,13.6311001 L16.6449719,13.6311001 L14.2954531,15.1345825 C14.2858945,15.1406991 14.2762325,15.1466526 14.2664713,15.1524403 C13.7914162,15.4341158 13.1779649,15.2773507 12.8962894,14.8022956 L12.8962894,14.8022956 L11.1461597,11.8506438 C11.0494387,11.6875205 10.9083271,11.5552628 10.7392871,11.4692997 Z M16,8 C14.8954305,8 14,8.8954305 14,10 C14,11.1045695 14.8954305,12 16,12 C17.1045695,12 18,11.1045695 18,10 C18,8.8954305 17.1045695,8 16,8 Z"/>
  </g>
</svg>
