<svg xmlns="http://www.w3.org/2000/svg" width="30" height="30" viewBox="0 0 30 30">
  <g fill="none" fill-rule="evenodd">
    <rect width="30" height="30" fill="#000" rx="5"/>
    <path fill="#FFF" fill-rule="nonzero" d="M20,5 C21.1045695,5 22,5.8954305 22,7 L22,11 L23,11 C24.1045695,11 25,11.8954305 25,13 L25,19 C25,20.1045695 24.1045695,21 23,21 L22,21 L22,22 C22,23.1045695 21.1045695,24 20,24 L10,24 C8.8954305,24 8,23.1045695 8,22 L8,21 L7,21 C5.8954305,21 5,20.1045695 5,19 L5,13 C5,11.8954305 5.8954305,11 7,11 L8,11 L8,7 C8,5.8954305 8.8954305,5 10,5 L20,5 Z M21,18 L9,18 L9,22 C9,22.5522847 9.44771525,23 10,23 L10,23 L20,23 C20.5522847,23 21,22.5522847 21,22 L21,22 L21,18 Z M19,20 L19,21 L11,21 L11,20 L19,20 Z M22.5,13 L21.5,13 C21.2238576,13 21,13.2238576 21,13.5 C21,13.7761424 21.2238576,14 21.5,14 L21.5,14 L22.5,14 C22.7761424,14 23,13.7761424 23,13.5 C23,13.2238576 22.7761424,13 22.5,13 L22.5,13 Z M19.1275656,13 C18.8514233,13 18.6275656,13.2238576 18.6275656,13.5 C18.6275656,13.7761424 18.8514233,14 19.1275656,14 C19.403708,14 19.6275656,13.7761424 19.6275656,13.5 C19.6275656,13.2238576 19.403708,13 19.1275656,13 Z M20,6 L10,6 C9.44771525,6 9,6.44771525 9,7 L9,7 L9,11 L21,11 L21,7 C21,6.48716416 20.6139598,6.06449284 20.1166211,6.00672773 L20,6 Z"/>
  </g>
</svg>
