<svg xmlns="http://www.w3.org/2000/svg" width="44" height="45" viewBox="0 0 44 45">
  <path fill="#303438" d="M131.021134,346.035139 C143.255564,346.035139 153.132902,355.912477 153.02066,368.034665 C153.02066,380.156853 143.143322,390.034192 131.021134,390.034192 C118.898946,390.034192 109.021607,380.156853 109.021607,368.034665 C109.021607,355.912477 118.898946,346.035139 131.021134,346.035139 Z M140.898472,358.269569 C140.786229,358.045084 140.337259,358.045084 140.000532,358.157327 L140.000532,358.157327 L126.306949,362.647026 C125.970222,362.759269 125.633494,363.095996 125.521252,363.432724 L125.521252,363.432724 L121.031553,377.126306 C120.807068,377.463034 120.91931,377.799761 121.143795,378.024246 C121.256038,378.248731 121.705008,378.248731 122.041735,378.136489 L122.041735,378.136489 L135.735318,373.646789 C136.072045,373.534547 136.408773,373.197819 136.521015,372.861092 L136.521015,372.861092 L141.010714,359.167509 C141.235199,358.830782 141.122957,358.494054 140.898472,358.269569 Z M131.021134,364.667391 C132.929256,364.667391 134.388408,366.238786 134.388408,368.034665 C134.388408,369.942787 132.929256,371.40194 131.021134,371.40194 C129.113011,371.40194 127.653859,369.830545 127.653859,368.034665 C127.653859,366.126543 129.225254,364.667391 131.021134,364.667391 Z" transform="translate(-109 -346)"/>
</svg>
