<svg xmlns="http://www.w3.org/2000/svg" width="44" height="45" viewBox="0 0 44 45">
  <path fill="#FFF" d="M131.021134,276.035139 C143.255564,276.035139 153.132902,285.912477 153.02066,298.034665 C153.02066,310.156853 143.143322,320.034192 131.021134,320.034192 C118.898946,320.034192 109.021607,310.156853 109.021607,298.034665 C109.021607,285.912477 118.898946,276.035139 131.021134,276.035139 Z M140.898472,288.269569 C140.786229,288.045084 140.337259,288.045084 140.000532,288.157327 L140.000532,288.157327 L126.306949,292.647026 C125.970222,292.759269 125.633494,293.095996 125.521252,293.432724 L125.521252,293.432724 L121.031553,307.126306 C120.807068,307.463034 120.91931,307.799761 121.143795,308.024246 C121.256038,308.248731 121.705008,308.248731 122.041735,308.136489 L122.041735,308.136489 L135.735318,303.646789 C136.072045,303.534547 136.408773,303.197819 136.521015,302.861092 L136.521015,302.861092 L141.010714,289.167509 C141.235199,288.830782 141.122957,288.494054 140.898472,288.269569 Z M131.021134,294.667391 C132.929256,294.667391 134.388408,296.238786 134.388408,298.034665 C134.388408,299.942787 132.929256,301.40194 131.021134,301.40194 C129.113011,301.40194 127.653859,299.830545 127.653859,298.034665 C127.653859,296.126543 129.225254,294.667391 131.021134,294.667391 Z" transform="translate(-109 -276)"/>
</svg>
