<svg xmlns="http://www.w3.org/2000/svg" width="44" height="44" viewBox="0 0 44 44">
  <path fill="#FFF" d="M189,278.775412 C188.447715,278.775412 188,278.327697 188,277.775412 L188,277 C188,276.447715 188.447715,276 189,276 L231,276 C231.552285,276 232,276.447715 232,277 L232,277.775412 C232,278.327697 231.552285,278.775412 231,278.775412 L229.25,278.775412 L229.25,303.754124 C229.25,305.286942 228.018783,306.529536 226.5,306.529536 L213.319,306.529 L224.024722,317.333936 C224.410921,317.723703 224.410921,318.351864 224.024722,318.741631 L223.488188,319.283123 C223.099464,319.675439 222.466306,319.678351 222.07399,319.289627 L222.067523,319.283161 L210.710314,307.822234 C210.321568,307.429939 209.68841,307.427061 209.296115,307.815806 L209.289686,307.822234 L197.932477,319.283161 C197.543732,319.675456 196.910573,319.678334 196.518278,319.289589 C196.516113,319.287444 196.513957,319.285288 196.511812,319.283123 L195.975278,318.741631 C195.589079,318.351864 195.589079,317.723703 195.975278,317.333936 L206.68,306.529 L193.5,306.529536 C191.981217,306.529536 190.75,305.286942 190.75,303.754124 L190.75,278.775412 L189,278.775412 Z M223.125,285.713943 L216.125,285.713943 C215.070638,285.713943 214.206835,286.529821 214.130486,287.564681 L214.125,287.713943 L214.125,294.815593 C214.125,295.869955 214.940878,296.733758 215.975738,296.810107 L216.125,296.815593 L223.125,296.815593 C224.179362,296.815593 225.043165,295.999715 225.119514,294.964855 L225.125,294.815593 L225.125,287.713943 C225.125,286.609374 224.229569,285.713943 223.125,285.713943 Z M207.625,294.04018 L195.875,294.04018 C195.362164,294.04018 194.939493,294.426221 194.881728,294.923559 L194.875,295.04018 L194.875,295.815593 C194.875,296.328429 195.26104,296.7511 195.758379,296.808865 L195.875,296.815593 L207.625,296.815593 C208.137836,296.815593 208.560507,296.429553 208.618272,295.932214 L208.625,295.815593 L208.625,295.04018 C208.625,294.487896 208.177285,294.04018 207.625,294.04018 Z M207.625,285.713943 L195.875,285.713943 C195.362164,285.713943 194.939493,286.099983 194.881728,286.597322 L194.875,286.713943 L194.875,287.489356 C194.875,288.002192 195.26104,288.424863 195.758379,288.482628 L195.875,288.489356 L207.625,288.489356 C208.137836,288.489356 208.560507,288.103315 208.618272,287.605977 L208.625,287.489356 L208.625,286.713943 C208.625,286.161659 208.177285,285.713943 207.625,285.713943 Z" transform="translate(-188 -276)"/>
</svg>
