<svg xmlns="http://www.w3.org/2000/svg" width="44" height="45" viewBox="0 0 44 45">
  <path fill="#FFF" d="M304.697722,297.310967 C304.926851,297.087393 305.088451,296.797301 305.14203,296.468764 C305.247706,295.813002 304.91753,295.172261 304.312116,294.870486 L294.306115,289.88176 L296.045015,279.025986 C296.1489,278.370462 295.86718,277.781159 295.261272,277.480934 C294.655364,277.181424 294.037605,277.409648 293.557434,277.87873 L285.859883,285.398356 L275.526546,280.562932 C274.920391,280.261396 274.082268,280.275402 273.600801,280.74526 L273.629689,280.774525 C273.149271,281.244144 273.090754,282.020604 273.39951,282.613007 L278.367697,292.836206 L270.666381,300.242465 C270.186766,300.711547 269.952452,301.315633 270.259665,301.907499 C270.566384,302.499366 271.11143,302.717576 271.782583,302.616488 L282.926945,300.942274 L288.065003,310.756232 C288.374253,311.347324 289.038431,311.676635 289.709584,311.572448 C290.04513,311.520771 290.344874,311.366159 290.574003,311.14181 C290.802885,310.918474 290.961893,310.626355 291.014731,310.298594 L292.778136,299.476138 L303.834352,297.738506 C304.168849,297.686114 304.469149,297.534601 304.697722,297.310967 Z M297.411271,300.520875 L295.769035,300.851915 C294.923443,300.952228 294.131676,301.617169 293.996124,302.447928 L293.775761,303.799982 L307.654857,319.185831 C308.421378,320.035663 309.666402,320.282959 310.701989,319.784313 C311.268516,319.511566 311.854795,319.161393 312.288362,318.736835 C312.863592,318.17328 313.34759,317.43139 313.720542,316.746601 C314.29429,315.692805 314.025471,314.383546 313.098955,313.612629 L297.411271,300.520875 Z M307.704917,284.710945 C307.714979,284.649314 307.70646,284.585419 307.676585,284.527305 C307.616525,284.411912 307.489738,284.348791 307.359063,284.370189 L305.199312,284.725428 L304.205021,282.816137 C304.144714,282.701042 304.031322,282.640187 303.900894,282.662061 C303.770465,282.683936 303.699603,282.790388 303.67874,282.919014 L303.344243,284.982381 L301.150728,285.39925 C301.020053,285.420887 300.889625,285.518697 300.868514,285.64756 L300.876477,285.64911 C300.85586,285.777735 300.937277,285.906837 301.055052,285.964891 L303.032586,287.00927 L302.68414,289.055293 C302.663276,289.183918 302.69704,289.305868 302.814568,289.363981 C302.932095,289.422274 303.04345,289.394497 303.137521,289.302113 L304.698339,287.766717 L306.654763,288.727352 C306.772537,288.785168 306.915558,288.761207 307.009135,288.668285 C307.056048,288.621913 307.085182,288.563382 307.095244,288.501752 C307.105058,288.440658 307.096046,288.376464 307.066109,288.318648 L306.079533,286.41192 L307.618932,284.876763 C307.665474,284.830391 307.695103,284.772098 307.704917,284.710945 Z M288.442338,277.779371 C288.450609,277.727396 288.443634,277.673157 288.418141,277.623983 C288.36734,277.526173 288.259874,277.472709 288.149075,277.490769 L286.319191,277.791768 L285.476685,276.174119 C285.425637,276.076547 285.329775,276.025109 285.219223,276.043706 C285.108671,276.062302 285.048611,276.152483 285.031081,276.261439 L284.74757,278.009501 L282.889107,278.362714 C282.778308,278.381012 282.667694,278.463802 282.649916,278.573056 L282.656891,278.574308 C282.639114,278.683264 282.708186,278.792577 282.807936,278.841989 L284.483442,279.726928 L284.188328,281.460209 C284.170797,281.569164 284.19913,281.672339 284.29888,281.72175 C284.398383,281.771162 284.492701,281.747678 284.572329,281.669299 L285.894697,280.368444 L287.552426,281.182335 C287.652176,281.23121 287.773283,281.211124 287.852664,281.132149 C287.892354,281.092929 287.917106,281.043279 287.925625,280.991305 C287.933896,280.93939 287.926427,280.884852 287.900872,280.835977 L287.065033,279.220593 L288.36913,277.919738 C288.40882,277.880697 288.433819,277.831345 288.442338,277.779371 Z M272.685149,288.629066 C272.660149,288.597714 272.625891,288.573574 272.585399,288.562071 C272.504228,288.53966 272.418675,288.571011 272.371763,288.641284 L271.597835,289.801534 L270.253554,289.430499 C270.172383,289.408327 270.093991,289.434552 270.047387,289.504885 C270.000969,289.575158 270.020845,289.654372 270.07288,289.720353 L270.910263,290.777249 L270.151026,291.980055 C270.104114,292.050328 270.093805,292.153741 270.14615,292.219961 L270.150285,292.216623 C270.202629,292.282605 270.299787,292.300903 270.37892,292.271638 L271.740485,291.807383 L272.563424,292.862968 C272.615459,292.928949 272.68842,292.966381 272.767554,292.937055 C272.846687,292.90779 272.881995,292.843835 272.878908,292.759793 L272.82891,291.362917 L274.14097,290.8719 C274.220103,290.842337 274.271151,290.765448 274.267756,290.681168 C274.265966,290.639147 274.25072,290.599928 274.22572,290.568576 C274.200968,290.536986 274.166463,290.513323 274.125723,290.501879 L272.786072,290.12852 L272.726814,288.741598 C272.724839,288.699577 272.710148,288.660358 272.685149,288.629066 Z" transform="translate(-270 -276)"/>
</svg>
