<svg xmlns="http://www.w3.org/2000/svg" width="40" height="40" viewBox="0 0 40 40">
  <g fill="none" fill-rule="evenodd">
    <path fill="#000" fill-rule="nonzero" d="M19.9810127,4.03164557 C8.33544304,4.03164557 4.03164557,14.1582278 4.03164557,19.9177215 C4.03164557,25.6139241 8.20886076,35.8672255 19.664557,35.8672255 C19.664557,35.8672255 22.5126582,35.9303797 22.5126582,33.335443 C22.5126582,30.7405063 21.2468354,31.5632911 21.2468354,29.7278481 C21.2468354,27.8924051 22.5126582,27.0696203 23.1455696,27.0696203 C23.778481,27.0696203 27.8291139,27.3860759 30.1075949,26.5 C32.3860759,25.6139241 35.9936709,22.8291139 35.9936709,18.1455696 C35.9936709,13.9683544 31.6265823,4.03164557 19.9810127,4.03164557 Z M10.2341772,19.9177215 C8.71518987,19.9177215 7.44936709,18.6518987 7.44936709,17.1329114 C7.44936709,15.6139241 8.71518987,14.3481013 10.2341772,14.3481013 C11.7531646,14.3481013 13.0189873,15.6139241 13.0189873,17.1329114 C13.0189873,18.7151899 11.7531646,19.9177215 10.2341772,19.9177215 Z M15.4873418,13.0822785 C13.9683544,13.0822785 12.7025316,11.8164557 12.7025316,10.2974684 C12.7025316,8.77848101 13.9683544,7.51265823 15.4873418,7.51265823 C17.0063291,7.51265823 18.2721519,8.77848101 18.2721519,10.2974684 C18.2721519,11.8164557 17.0063291,13.0822785 15.4873418,13.0822785 L15.4873418,13.0822785 Z M24.3481013,13.0822785 C22.8291139,13.0822785 21.5632911,11.8164557 21.5632911,10.2974684 C21.5632911,8.77848101 22.8291139,7.51265823 24.3481013,7.51265823 C25.8670886,7.51265823 27.1329114,8.77848101 27.1329114,10.2974684 C27.1329114,11.8164557 25.9303797,13.0822785 24.3481013,13.0822785 L24.3481013,13.0822785 Z M29.664557,19.9177215 C28.1455696,19.9177215 26.8797468,18.6518987 26.8797468,17.1329114 C26.8797468,15.6139241 28.1455696,14.3481013 29.664557,14.3481013 C31.1835443,14.3481013 32.4493671,15.6139241 32.4493671,17.1329114 C32.4493671,18.7151899 31.1835443,19.9177215 29.664557,19.9177215 Z"/>
    <rect width="40" height="40"/>
  </g>
</svg>
