<svg xmlns="http://www.w3.org/2000/svg" width="44" height="44" viewBox="0 0 44 44">
  <path fill="#FFF" d="M79.6250367,305.197667 C79.9819297,305.197667 80.3242052,305.339442 80.5765667,305.591803 C80.8289282,305.844165 80.9707033,306.18644 80.9707033,306.543333 L80.9707033,306.543333 L80.9707033,318.654333 C80.9707033,319.011226 80.8289282,319.353502 80.5765667,319.605863 C80.3242052,319.858225 79.9819296,320 79.6250367,320 L79.6250367,320 L38.3457033,320 C37.60137,320 37.0000367,319.398667 37.0000367,318.658 L37.0000367,318.658 L37.0000367,306.543333 C37.0000367,306.18644 37.1418118,305.844165 37.3941733,305.591803 C37.6465348,305.339442 37.9888103,305.197667 38.3457033,305.197667 L38.3457033,305.197667 Z M79.64337,276 C80.3926363,276 81.0000367,276.6074 81.0000367,277.356667 L81.0000367,277.356667 L81.0000367,288.382333 L78.2867033,288.382333 L78.2867033,278.676667 L65.0500367,278.676667 L65.0500367,298.623333 L67.43337,298.623333 L67.43337,301.336667 L63.69337,301.336667 C62.9600367,301.336667 62.3367033,300.713333 62.3367033,299.98 L62.3367033,299.98 L62.3367033,277.356667 C62.3367033,276.586667 62.9600367,276 63.69337,276 L63.69337,276 Z M57.17037,290.615333 C57.527263,290.615333 57.8695386,290.757109 58.1219,291.00947 C58.3742615,291.261831 58.5160367,291.604107 58.5160367,291.961 L58.5160367,291.961 L58.5160367,299.983667 C58.5160367,300.34056 58.3742615,300.682835 58.1219,300.935197 C57.8695386,301.187558 57.527263,301.329333 57.17037,301.329333 L57.17037,301.329333 L38.3457033,301.329333 C37.60137,301.329333 37.0000316,300.728 37.0000316,299.983667 L37.0000316,299.983667 L37.0000316,291.964667 C36.9990625,291.607139 37.1404075,291.26392 37.3928746,291.010765 C37.6453417,290.75761 37.9881742,290.615333 38.3457033,290.615333 L38.3457033,290.615333 Z M69.9340367,283.828333 C70.3235776,283.652823 70.781377,283.740861 71.0780367,284.048333 L71.0780367,284.048333 L80.62237,293.589 C80.93037,293.897 81.10637,294.329667 80.93037,294.740333 C80.75437,295.165667 80.31437,295.363667 79.87437,295.36 L79.87437,295.36 L76.9887033,295.36 L78.6020367,299.169667 C78.7194107,299.425747 78.7194107,299.720253 78.6020367,299.976333 C78.5070344,300.229817 78.3102309,300.43194 78.05937,300.533667 L78.05937,300.533667 L76.4020367,301.237667 C76.1459567,301.355041 75.85145,301.355041 75.59537,301.237667 C75.3477203,301.133663 75.1486065,300.939789 75.0380367,300.695 L75.0380367,300.695 L73.5127033,297.090667 L71.0780367,299.525333 C70.7737033,299.833333 70.1650367,300.130333 69.7690367,299.837 C69.3987033,299.565667 69.2887033,299.114667 69.2887033,298.674667 L69.2887033,298.674667 L69.2887033,284.781667 C69.2801863,284.359282 69.5387212,283.977355 69.9340367,283.828333 Z M57.1740367,275.999995 C57.5305934,275.999995 57.8724932,276.141891 58.1242727,276.394358 C58.3760522,276.646826 58.5170108,276.989111 58.5160417,277.345667 L58.5160417,277.345667 L58.5160417,285.368333 C58.5160417,286.111525 57.9135612,286.714 57.17037,286.714 L57.17037,286.714 L38.3457033,286.714 C37.60137,286.714 37.0000166,286.109 37.0000166,285.368333 L37.0000166,285.368333 L37.0000166,277.349333 C36.9980799,276.991508 37.1391087,276.647718 37.3917891,276.39435 C37.6444695,276.140981 37.9878735,275.999017 38.3457033,275.999995 L38.3457033,275.999995 Z" transform="translate(-37 -276)"/>
</svg>
