<svg xmlns="http://www.w3.org/2000/svg" width="440" height="100" viewBox="0 0 440 100"><g fill="none" fill-rule="evenodd"><g fill-rule="nonzero"><path fill="#FFF" d="M406.464 46.464a5 5 0 0 1 6.89-.172l.182.172 25 25a5 5 0 0 1-6.89 7.244l-.182-.172-25-25a5 5 0 0 1 0-7.072z"/><path fill="#FFF" d="M438.536 21.464a5 5 0 0 0-6.89-.172l-.182.172-50 50a5 5 0 0 0 6.89 7.244l.182-.172 50-50a5 5 0 0 0 0-7.072z"/><path fill="#A5B4C2" d="M228.536 21.464a5 5 0 0 0-6.89-.172l-.182.172-50 50a5 5 0 0 0 6.89 7.244l.182-.172 50-50a5 5 0 0 0 0-7.072z"/><path fill="#FFF" d="M225 20a5 5 0 0 0-4.995 4.783L220 25v50a5 5 0 0 0 9.995.217L230 75V25a5 5 0 0 0-5-5zM385 20a5 5 0 0 0-4.995 4.783L380 25v50a5 5 0 0 0 9.995.217L390 75V25a5 5 0 0 0-5-5z"/><path fill="#A5B4C2" d="M121.464 21.464a5 5 0 0 1 6.89-.172l.182.172 50 50a5 5 0 0 1-6.89 7.244l-.182-.172-50-50a5 5 0 0 1 0-7.072z"/><path fill="#FFF" d="M225 70a5 5 0 0 0-.217 9.995L225 80h66a5 5 0 0 0 .217-9.995L291 70h-66z"/><path fill="#A5B4C2" d="M290 20c-16.569 0-30 13.431-30 30 0 16.569 13.431 30 30 30 16.569 0 30-13.431 30-30 0-16.569-13.431-30-30-30zm0 10c11.046 0 20 8.954 20 20s-8.954 20-20 20-20-8.954-20-20 8.954-20 20-20z"/><path fill="#A5B4C2" d="M340 20c-16.569 0-30 13.431-30 30 0 16.569 13.431 30 30 30 16.569 0 30-13.431 30-30 0-16.569-13.431-30-30-30zm0 10c11.046 0 20 8.954 20 20s-8.954 20-20 20-20-8.954-20-20 8.954-20 20-20z"/></g><path fill="#FFF" d="M28.543 0h42.914c9.925 0 13.524 1.033 17.152 2.974a20.232 20.232 0 0 1 8.417 8.417c1.94 3.628 2.974 7.227 2.974 17.152v42.914c0 9.925-1.033 13.524-2.974 17.152a20.232 20.232 0 0 1-8.417 8.417C84.981 98.966 81.382 100 71.457 100H28.543c-9.925 0-13.524-1.033-17.152-2.974a20.232 20.232 0 0 1-8.417-8.417C1.034 84.981 0 81.382 0 71.457V28.543c0-9.925 1.033-13.524 2.974-17.152a20.232 20.232 0 0 1 8.417-8.417C15.019 1.034 18.618 0 28.543 0z"/><path fill="#292B2F" d="M50.694 70.732l3.984 3.314c.427.355.516.976.208 1.438l-3.983 5.965a1.086 1.086 0 0 1-1.806 0l-3.983-5.965a1.086 1.086 0 0 1 .208-1.438l3.984-3.314a1.086 1.086 0 0 1 1.388 0zM30.095 38.715c9.994 0 18.095 8.09 18.095 18.068 0 9.98-8.101 18.069-18.095 18.069-9.993 0-18.095-8.09-18.095-18.069 0-9.978 8.102-18.068 18.095-18.068zm39.81 0c9.993 0 18.095 8.09 18.095 18.068 0 9.98-8.102 18.069-18.095 18.069-9.994 0-18.095-8.09-18.095-18.069 0-9.978 8.101-18.068 18.095-18.068zm-39.81 5.42c-6.995 0-12.666 5.663-12.666 12.648 0 6.986 5.67 12.648 12.666 12.648s12.667-5.662 12.667-12.648c0-6.985-5.671-12.647-12.667-12.647zm39.81 0c-6.996 0-12.667 5.663-12.667 12.648 0 6.986 5.671 12.648 12.667 12.648 6.995 0 12.666-5.662 12.666-12.648 0-6.985-5.67-12.647-12.666-12.647zm8.459-22.897a2.717 2.717 0 0 1 3.551 1.337 2.708 2.708 0 0 1-1.312 3.602L51.29 38.389l-.056.025A2.703 2.703 0 0 1 50 38.64a2.702 2.702 0 0 1-1.234-.226l-.056-.025-29.313-12.212a2.708 2.708 0 0 1-1.312-3.602 2.717 2.717 0 0 1 3.551-1.337l.056.026L50 33.057l28.309-11.793z"/></g></svg>