<svg xmlns="http://www.w3.org/2000/svg" width="44" height="44" viewBox="0 0 44 44">
  <g fill="none" fill-rule="evenodd">
    <path fill="#FFF" d="M12.5590314,-5.07399901e-16 L31.4409686,5.07399901e-16 C35.8080174,-2.94813954e-16 37.3916148,0.454700455 38.9881426,1.30853285 C40.5846704,2.16236525 41.8376347,3.4153296 42.6914671,5.01185737 C43.5452995,6.60838515 44,8.19198258 44,12.5590314 L44,31.4409686 C44,35.8080174 43.5452995,37.3916148 42.6914671,38.9881426 C41.8376347,40.5846704 40.5846704,41.8376347 38.9881426,42.6914671 C37.3916148,43.5452995 35.8080174,44 31.4409686,44 L12.5590314,44 C8.19198258,44 6.60838515,43.5452995 5.01185737,42.6914671 C3.4153296,41.8376347 2.16236525,40.5846704 1.30853285,38.9881426 C0.454700455,37.3916148 1.96542636e-16,35.8080174 -3.382666e-16,31.4409686 L3.382666e-16,12.5590314 C-1.96542636e-16,8.19198258 0.454700455,6.60838515 1.30853285,5.01185737 C2.16236525,3.4153296 3.4153296,2.16236525 5.01185737,1.30853285 C6.60838515,0.454700455 8.19198258,2.94813954e-16 12.5590314,-5.07399901e-16 Z"/>
    <path fill="#121418" d="M17.0255551,22.6739882 L18.7781252,24.1322796 C18.9659901,24.2885996 19.0055759,24.5615019 18.8698693,24.7647575 L17.1172992,27.389682 C16.9707986,27.6091043 16.6741595,27.668219 16.4547373,27.5217184 C16.4024682,27.4868202 16.3575991,27.4419511 16.3227008,27.389682 L14.5701307,24.7647575 C14.4344241,24.5615019 14.4740099,24.2885996 14.6618748,24.1322796 L16.4144449,22.6739882 C16.5915082,22.5266561 16.8484918,22.5266561 17.0255551,22.6739882 Z M7.96190476,8.58673968 C12.3591433,8.58673968 15.9238095,12.1460759 15.9238095,16.5367397 C15.9238095,20.9274034 12.3591433,24.4867397 7.96190476,24.4867397 C3.56466618,24.4867397 0,20.9274034 0,16.5367397 C0,12.1460759 3.56466618,8.58673968 7.96190476,8.58673968 Z M25.4780952,8.58673968 C29.8753338,8.58673968 33.44,12.1460759 33.44,16.5367397 C33.44,20.9274034 29.8753338,24.4867397 25.4780952,24.4867397 C21.0808567,24.4867397 17.5161905,20.9274034 17.5161905,16.5367397 C17.5161905,12.1460759 21.0808567,8.58673968 25.4780952,8.58673968 Z M7.96190476,10.9717397 C4.88383776,10.9717397 2.38857143,13.4632751 2.38857143,16.5367397 C2.38857143,19.6102043 4.88383776,22.1017397 7.96190476,22.1017397 C11.0399718,22.1017397 13.5352381,19.6102043 13.5352381,16.5367397 C13.5352381,13.4632751 11.0399718,10.9717397 7.96190476,10.9717397 Z M25.4780952,10.9717397 C22.4000282,10.9717397 19.9047619,13.4632751 19.9047619,16.5367397 C19.9047619,19.6102043 22.4000282,22.1017397 25.4780952,22.1017397 C28.5561622,22.1017397 31.0514286,19.6102043 31.0514286,16.5367397 C31.0514286,13.4632751 28.5561622,10.9717397 25.4780952,10.9717397 Z M29.200146,0.896893868 C29.7926297,0.636937017 30.48767,0.896351926 30.7627074,1.48513395 C31.0415647,2.08209349 30.7832168,2.79159436 30.1853516,3.06980823 L30.1853516,3.06980823 L17.2876289,8.44324697 L17.2630029,8.45437957 C17.086229,8.53194047 16.9003257,8.56326737 16.719172,8.55340675 C16.5389525,8.56320663 16.3532381,8.53186534 16.1766355,8.45437958 L16.1520094,8.44324697 L3.25428678,3.06980823 C2.65642155,2.79159437 2.39807369,2.0820935 2.676931,1.48513395 C2.95196835,0.89635193 3.64700863,0.63693702 4.23949236,0.896893871 L4.26411843,0.908026478 L16.719,6.097 L29.1755199,0.908026475 Z" transform="translate(5.368 8.448)"/>
  </g>
</svg>
